<svg xmlns="http://www.w3.org/2000/svg" id="Layer_1" viewBox="0 0 226 64.5"><defs><style>.st0{fill:#46083d}</style></defs><path d="m63.4 63.5 30.3-30.3.2-.2c.2-.2.5-.2.8-.2s.7.1.9.4L126 63.6c.9.9 2.3.2 2.3-1V32.3L97.9 1.8c-1.8-1.8-4.6-1.8-6.4 0L61.1 32.2v30.3c0 1.2 1.5 1.8 2.3 1" class="st0"/><path d="M117.7 22.1c.4.3 0 0-.3-.4l-.5-.5c-.1-.1.1 0 .3.2.1.1.2.2.1 0-.6-.6 0-.2-.4-.6-.2-.2.3.3.3.2l.6.6q.3.3 0 0c-.2-.1-.1 0 .2.2l1 1c.3.3.7.6 1 1 .4.4.7.7 1.1 1 0 0-.2-.2-.2-.3l.4.4c.1.2 0 0-.2-.2.6.7.8.9 1 1 .3.2.5.5.7.7.4.5 1.1 1.1 1.6 1.7.2.2.3.2.2.1 0 0-.1-.2.1 0l.3.3c0 .2.6.7 1 1.1l.3.3c.8.9.8.9 1.5 1.4l.2.2v3.7-.1c0-.2 0-1-.1-.6v-.9.8-1.9s0 .4 0 0v-.7c0-.1-.2-.2-.3-.3l-.3-.3-1.5-1.5c-1-1-1.3-1.3-1.3-1.1 0 0-.2 0-.6-.5-.4-.4-.7-.6-.8-.7 0 0-.1 0 .1.2.7.7 1.4 1.5 2.2 2.2.3.3.8.7 1.1 1.1.3.3.6.7.9.9l.1.1v2.6-1 3.4-1.4 1.6c0 .4 0 .7.1 1v-1.4 3.8c0 1.2 0 .3.1.4v-1.5.3-3.9 1.8-2c0 .2.1 0 .1-1.1v-.6.2c0 .1 0 .2 0 0v-2.4s-.1 0-.2-.2l-.2-.2c-.5-.5-.3-.2-.3-.2-.1 0-.5-.4-.8-.8l-.4-.4-.1-.2c-.4-.4-.9-1-1.3-1.3-.3-.3-.8-.8-1.3-1.2l-.6-.6s-.2-.2-.2-.3c-.2-.3-.5-.5-.7-.6-.2-.2-.2-.1 0 .1.2.3.5.5.8.9.8.8 1.6 1.7 2.5 2.5l-1.9-1.9-1.9-1.9-.1-.1-3-3-1.1-1.1c-.4-.5-.7-.8-1.4-1.4-.2-.2-.4-.3-.7-.6l-.4-.4h.1c.2.2.4.4.7.6-.5-.5-.5-.5-.7-.8-.1-.1-.3-.3-.4-.5l-1.2-1.2c-.4-.3 0 .1.3.4 0 0 .2.2.1.2-.2-.2-.8-.7-1.5-1.3-.7-.7-1.3-1.3-1.7-1.6l-.9-.9c-.3-.3-.1-.2-.3-.3-.2-.3.3.3.3.2l-3-3c.5.6.7.7 1.3 1.2.1.1.2.2.3.2l-.2-.2c-.9-.9-1.7-1.6-2.5-2.5l-.2-.2c-.2-.2-.4-.3-.6-.6l-.4-.4-.8-.8c-.5-.6-1-1-1.5-1.5-.6-.6-.5-.5-.9-.8l-.2-.2-.2-.2c-.5-.6-1.8-1.9-2.6-2.8-.1-.1-.3-.4-.5-.5 0 0-.2-.3-.5-.4-.4-.3-.9-.5-1.2-.6-.4 0-.2 0 .5.3.1 0 .3.2.4.2s.2.2.3.2c0 0-.5-.4-.4-.3 0 0 .3.2.5.4h.1c.2.3.5.6.5.6s-.2-.2-.5-.4-.6-.5-.9-.7-.6-.3-.7-.3h.2s.3.1.2 0c-.7-.3-1.2-.4-1.3-.5H94q-1.65 0-3 .9c-.6.5-1.2 1.1-1.5 1.5-.2.3-.5.6-.9 1l-.3.3s.3-.2-.1.2l-1.1 1.1c-.1 0-.2 0-.6.5l-.2.2c-.2.2-.2.2-.1.2l-.2.2c-.1.1-.1 0-.1 0s-.3.2-.5.5l-.5.5c-.8.8-.8.8-.5.6l-.2.2c-.4.4-1 1-.8.9l-.5.5c-.3.3-.4.4-.5.4l-.4.4c-.2.1-.7.7-.4.3 0-.1-.1 0-.3.2-.3.3-.9.9-.8.9 0 0 .1-.1-.1.2-.9.9-1.9 1.8-2.7 2.8.3-.4.6-.8 1.1-1.2l1.2-1.2c-.7.6-1.5 1.4-2.2 2.1l-.8.8c-.2.2-.3.2-.2 0 .2-.2-.2 0-.7.6-.5.5-.7.8-1.1 1.2l-.4.4c0-.1-.2.2-.3.3-.7.7-1.3 1.4-2.1 2.1l-.3.3c-.6.6-1.1 1.1-1.6 1.7l-1 1c-.3.3-.7.8-1.1 1.1l-.4.4c-.2.3-.4.5-.7.8l-.6.6s-.1.2-.3.3c-.1 0-.3.3-.3.3 0 .1-.4.5-.8.9-.2.2.2-.1-.3.3 0 0-.2.1-.3.2 0 0-.1 0-.2.1l-.4.4c-.5.5-1 1-1.5 1.6l-.4.4.1-.2.2-.2-.4.4c-.2.2-.3.4-.6.6l-.6.6s-.1.1-.3.2l-.3.3v.8-.4s0-.1 0 0v10.4c0 .6.1 1.3.1 2.4v.1-4.9s0-.1 0 0c0 .7 0 1.5.1 1.9 0 0 0-.3 0 0v6.3-1.6 2.3-.2c0-.6-.1 0-.2.4v.5c0 .8 0 2.3.1 3.4 0 1.1 0 2 .1 2.2v2.1c0 .4-.1.5 0 1.9v.6-.3V62c0 .3.2.7.6 1 .3.3.8.5 1.3.4.4 0 .7-.2.8-.3l.2-.2s-.2.1-.5.2c-.3 0-.5.1-.8 0-.3 0-.6-.2-.8-.5-.2-.2-.3-.4-.3-.5 0 0 0 .1 0 0v-1.7.4-1.9 2.5-15.1.7-8 2.8-7 .3-2.2 3-2.2s0 .4 0 0v-1.1c0-.3 0-.6 0 0v.1-1s.4-.4.7-.8c-.4.5-.2.3 0 0l.9-.9c.5-.5.9-.9 1.3-1.4.3-.3.4-.5.5-.6.1-.2-.3.2-.4.3.3-.3.2-.3.4-.4l.7-.7.3-.3.7-.7h.1c.4-.4.4-.5.6-.6.5-.4.8-.8 1.2-1.2.2-.2.4-.4.3-.4 0 0 .2-.3.4-.5.3-.3.1 0 .2-.1l.1-.1s.3-.3.2-.1c0 .1-.3.3-.4.4l-.4.4-.5.5s.4-.3.6-.5c.9-.9 1.3-1.4 2.1-2.2-.2.2-.5.4-.7.6 0 0-.1.1 0 0l.2-.2c.4-.3 1.4-1.3 1.4-1.2l.2-.2c.5-.5 1-.9 1.4-1.4.4-.4.6-.6.8-.7.4-.4.9-.8 1.3-1.3.2-.2.4-.4.6-.7l1.7-1.7c.1 0 .3-.3.4-.4l1.8-1.8c.3-.2.7-.7.5-.4 0 0-.3.3 0 .1.2-.2.5-.5.8-.7.3-.3.5-.5.1-.2-.4.4-.3.2.3-.4l.6-.6.7-.7.2-.2c.1-.1.2-.2.1 0s-.3.3-.4.5c0 .1-.2.2.1 0 .2-.2.5-.4.5-.6 0 0 .9-1 1.2-1.2.4-.3 0 0 0 .1 0 0-.3.3 0 .1l.5-.5q.3-.45.9-.9c.5-.5 1.1-1 1.6-1.5l.6-.6c.2-.2.5-.5.5-.6 0 0-.3.3-.6.5l-.5.5c0-.1-.1 0-.3.2l1.3-1.3c.6-.6.7-.7 1.1-1v-.1c0-.2.6-.8 1.6-1.8.3-.2.5-.5.8-.6.2-.1.4-.3.6-.3 0 0 .3-.1.4-.1h.1l.4-.1h1.3-.1c-.3 0-.6 0-1.4.1-.2 0-.8.2-.6.2.3 0 1.1-.3 1.7-.2h.8c.8.2.9.3 1.2.4 0 0 .1 0 .4.2.1.1 0 0 0 0-.1 0-.2 0 0 0 .2.2.4.3.5.5.6.5 1.4 1.3 2.1 1.9l.5.5c.2.2 0 0-.1 0-.3-.2 0 0 .3.4l1.2 1.2c-.3-.2-.8-.8-.9-.8 0 0-.2-.1-.4-.4l-.6-.6c-.4-.4-.5-.5-.6-.5l.3.4.6.6c.2.3.6.6.8.8l.2.2c.2.2.2.2.2.3.2.2.6.8 1.3 1.4.3.3.6.5.5.5 0 0 .2.2.5.4l.4.4c.1 0-.1-.1-.3-.3-.1-.1-.3-.3-.2-.3l.3.3.6.6.1.1c.5.5.9.8 1.4 1.3.3.2.5.5.7.7.2.3.5.6.3.5s-.2 0 .2.3l1.2 1.2c.2 0 .4.4.6.6.2.3.5.5.6.7.5.5.4.5.4.5s0 .2.5.5c.4.4 1.2 1.3 1.2 1.1 0 0 .6.5.4.3l-.9-.9c-.1-.1-.2-.3-.2-.3l.3.3c.3.3.3.3.3.2v-.1h.1l.4.4c.1.2.3.3.4.5.1.1.3.4.4.4 0 0 .3.3.6.5l.3.3c.2.1.4.4.3.3 0 0-.2-.2 0 0 .1.2.6.6.7.8.4.5 1.1 1.2 1.6 1.7.1.2.4.4.6.6l.9.9Zm-8.4-9.1c-.2-.2 0 0 .1.3l-.9-.9c-.1-.2.2.2.4.3-.1-.1-.3-.4-.2-.2 0 0 .2.2.1.2.1.1.2.1.4.4Zm-36.6 7.3c.2-.2-.6.7.3-.1-.5.5-1.1 1.1-1.3 1.2l-1.4 1.4 1.4-1.4c.6-.5.6-.7 1-1.1M61.2 36.4v-.6.4-1.8 2.3-.5zM109 12.9c-.1 0-.2-.2 0 0s.2.2.1.2c0 0-.2-.2-.5-.4l-.5-.5c0-.1-.2-.2-.1-.3 0 0 .5.4 1.2 1.1l.6.6-.6-.6-.2-.2Zm-29.4 1-.7.7c-.2.2-.3.3-.3.4 0 0 .1-.1.3-.2l.3-.3-.4.4c-.9.9-1.7 1.7-2.3 2.4l-.2.2-1.7 1.7c.3-.4.7-.7 1-1.1.3-.3.4-.5.4-.4l-.5.5c-.1.1-.4.4-.4.3 0 0 0-.2.2-.3 0 0 .3-.3.4-.3s.3-.3.5-.4c.4-.5.8-.9 1.3-1.3l.3-.3s.3-.4 0 0l-.9.9c.3-.3.8-.9 1.5-1.6l.7-.7.3-.3s-.2.3-.5.5c0 0-.1 0-.2.2l-.5.5.2-.2c.2-.2.2-.1.5-.5.2-.3.5-.5.8-.8.4-.4 1.1-1 1.4-1.2-.5.6-1 1-1.4 1.3Zm-15.3 15 .6-.6.5-.5s-.2.3-.4.4c-.2.2-.6.6-.5.6 0 0 .3-.2.7-.6.3-.3.7-.6 1-1 .1 0 0 0 0 0-.6.6-1.1 1.2-1.8 1.8-.7.7-1 1-.8.7 0-.1 0 0 0 0 .3-.3.6-.6.8-.9Zm6.7-6.3c-.3.2-.7.7-.9.9-.2.1-.3.2 0-.1l1.5-1.5c.2-.2.4-.4.4-.3 0 0-.2.2.1 0 .3-.3.2-.2.2-.3 0 0 .1 0 .2-.1.9-.8.6-.4-.1.4 0 0-.8.7-1.4 1.2Zm.1-.4-.2.2c.1-.2.3-.4.3-.4l.6-.6c.4-.5 1.2-1.1 1.2-1.1l-.6.6zM86.7 6.7s.2-.2.1-.2c0 0-.2.2-.3.2.9-.9 1.8-1.8 2.6-2.7l-.7.7c-.1.1-.3.3-.2.3.2 0-.2.3-.5.6-.6.6-1.2 1.2-1.8 1.9 0-.1.3-.4.7-.9ZM62.1 31c.5-.5.7-.7.7-.6 0 0-.2.3-.6.7l-.6.6c-.3.3-.6.6-.3.2.3-.3 0 0-.2 0 .4-.3.6-.6.9-.9ZM99.7 3.5c-.5-.5-1.2-1.2-1.3-1.4l.2.1c.4.4.9.8 1.3 1.2.3.3 0 .1 0 0-.5-.5-.2-.2 0 .1l.7.7c-.3-.3-.6-.5-.8-.8ZM64.8 28.7c.3-.3.6-.7.9-.9s.2-.2 0 0c-.5.5-.1.2 0 .1 0 0 .3-.3 0 0l-.4.4-.9.9c.4-.4.5-.6.2-.4Zm44.7-15.1c.2.1.4.4.5.5l-.4-.4c-.6-.6-1.2-1.2-1.6-1.5-.1-.1-.3-.2-.3-.3 0 0 0-.1-.2-.2-.2-.3-.2-.3.5.4.4.5 1 1 1.5 1.5m-32.3 2.3s-.1 0-.3.2c-.3.3.2-.3.3-.4s.3-.3.4-.3c0 0 .6-.5.6-.4l-.3.3-.7.7Zm28.3-6.8c.5.6.8.8 1 .9l.2.2.2.2s.3.3-.1 0-.7-.6-1.2-1.1c-.2-.2-.5-.5-.7-.8.2.2.3.2.6.6m-42 21.1.2-.2-.1.2-.9.9-.6.6-.4.4c-.1.1 0 0 0-.1.3-.3.5-.6.8-.9l.9-.9ZM95.3.6c-.8 0-1.5 0-2.4.3.8-.3 1.2-.4 1.5-.4h.8Zm5 3.8c-.2-.1.4.4 0 .1s-.3-.4-.6-.7c0 0-.1-.1.1 0l.2.2c.6.6 1.1 1.1 1.6 1.7-.5-.5-1-1-1.5-1.4Zm23 22.5c.2.2.4.3.5.5 0 0 .2.2 0 .1s-.2-.2-.5-.5l-.8-.8.7.7ZM86 7l.3-.3s.2-.2 0 .2c-.3.3-.5.5-.7.6l-.2.1zm42 24.7c.4.3.2.2.2.2v.1l.1.1v.6-.6c-.4-.4-.8-.8-.5-.6-.1-.1 0 0 .2.1Zm-18.5-18.2s.1.1.3.2c.3.3.7.7 1 .9 0 0 .2.1.2.2 0 0 .1.1 0 0-.4-.3-.7-.6-1.1-1l-.4-.4ZM90 3.2s-.1.2-.3.3c-.2.2-.3.2-.2.1.2-.2.1-.3.8-.9-.2.2-.3.4-.4.5Zm23.8 14.2.5.5-.2-.2-.9-.9c.2.2.4.3.6.6M66.3 27l-.2.2zs.1-.2.2-.2c.3-.3.8-.7 1.2-1.2-.5.5-1.1 1.1-1.3 1.4Zm59.5 2.7c-.1-.1-.1-.2-.1-.1 0 0 .2.1.3.3.5.5.7.7.3.4-.1-.1-.1-.2-.5-.5ZM61.5 56.3v.5zv-1.1zm66.8-22.1v.8-1.7zm-6.7-8.8.8.8-1.1-1.1-.2-.2c.2.1.3.3.5.5m-13.5-13c.2.3.5.5.7.8 0 0-.2-.1-.3-.3-.2-.3-.5-.5-.6-.6 0 0 .1 0 .2.2ZM60.8 61.9v-.5c0-.2 0 0 0 0v1.2zm.4-21v1.5zM88 5.3s0-.1.4-.4c.2-.2.5-.5.5-.4l-.5.5-.3.3ZM61.2 60.5v-.3zv1zm19.6-47.6.4-.4-.3.3c-.2.2-.3.3-.4.3 0 0 .1-.1.2-.3Zm42.4 14.2.4.4-.3-.3c-.2-.2-.3-.3-.2-.3l.2.2ZM61.4 36c0-.1 0 0 0 0v.9-1ZM113 17l-.4-.4-.2-.2s.2.2.4.3l.2.2ZM61.4 41.1v-.9zm66-9.7.1.1c.2.2.3.3.3.4l-.2-.2c-.2-.2-.2-.3-.3-.3Zm-2.5-2.6-.2-.2s.2.2.5.4q0 .15-.3-.3ZM61 59.8v.3-.7zm50.6-44.3-.2-.2-.2-.2.2.1.2.2ZM62.5 30.9l.9-.9zm56.2-8.3-.2-.2c-.1-.2 0-.1.2 0 0 0 .2.3 0 .1Zm.5.3-.2-.2c-.2-.2-.3-.4-.4-.4l.2.2zM102.7 6.3c.1.1.2.3.2.2l-.5-.5.3.2ZM61.5 51.5v-.2.6zM96.1.8c.3 0 .7.2 1.1.5-.4-.2-.7-.4-1.1-.5M69.8 23.5l-.1.1c-.2.2-.4.4-.6.5.3-.3.5-.5.7-.6m-.1-.2.7-.7zm-8.8 17.8V40zm13.3-22.2-.5.6c.2-.2.3-.4.5-.6m-4.9 4.8s-.1.1-.1 0c0 0 .2-.3.5-.5-.1.1-.1.2-.4.5m38.8-11.1-.2-.1c-.1-.1-.2-.3-.2-.2s0 0 .2.2c.1.1.2.2.1.2Zm19.8 19.6s-.2-.1-.3-.3l-.1-.1s.1 0 .2.2zm-.3-1c.1.1.3.2.4.4l.4.4c-.3-.3-.6-.5-.8-.8m-7.9-7.7.1.1c.1.1.2.2.2.3l-.1-.1-.3-.3Zm7.2 7c-.1 0-.3-.2-.5-.5l.4.4Zm-.1.8.1.1-.2-.2-.1-.1zM86.6 7.2l-.8.8zM61.1 45.1v-.7zm43-37.3c0 .1.2.2.2.2zl-.1-.1.2.1Zm2.7 3.2-.1-.1.2.1s.1.1 0 .1zm-26.2 1.7.1-.2c.1-.1.3-.2.3-.2s0 .1-.2.2zM121 24.9s.2.2.1.2c0 0-.1 0-.2-.2l-.2-.2.2.2Zm-54.3 1.5.1-.1.2-.2zm-5.4 17V43v.5ZM98.8 2.6l.2.2h-.1c-.1 0-.1-.1-.2-.2l.1.1Zm-1.1-1.3c-.1 0-.2-.1-.2-.1h.1l.2.2s-.1 0-.1-.1m13.1 14.1.2.2.2.2-.2-.2-.1-.1Zm11.1 10.2.2.2-.1-.1-.2-.2zm-59.7 5.1-.1.1-.1.1zm44.7-19.8.1.1.1.1zM61.2 33.5v-.4.4m-.3 5.5v.4-.4M74 19.6s0-.1.1-.1l.1-.1zm54.2 18.6v.1-.2.2Zm-67.1 5.3v-.1zv.2zm6.4-18-.1.1-.1.1v-.1l.1-.1Zm-6.3 18.8v-.1.5zm30.7-43h.1s-.1 0-.2.1l-.2.1s.2-.1.2-.2Zm-1.9 2-.1.1z" class="st0"/><path d="m116.8 54 1 1c.2 0 0 0-.4-.6l-1.2-1.2-.7-.7c-.1-.2 0-.1.1 0 .5.5.7.7 1.2 1.1.2.2.4.4.4.3 0 0-.1-.2-.3-.4l-.7-.7c-.4-.3-.6-.5-.8-.8 0 0-.2-.3-.3-.3-.2-.1-.6-.6-.9-.8l-.7-.7c-.1-.2.2.2.4.4.1 0 .2.2.2.2l-.1-.2-1.2-1.2c-1.2-1.1-2.4-2.3-3.5-3.4 0 0-.3-.2-.4-.4-.4-.4-.6-.6-.8-.7s-.4-.3-.9-.8c-.2-.2-.5-.4-.4-.4.2.2-.1 0-.2-.2-.2-.1-.2-.2 0 0l.6.6.9.9.3.3c.7.7 1.3 1.2 2 1.9.2.2.2.2.2.1s0 0 .3.3c.2.2.2.2.1.2s-.3-.2-.9-.8l-.3-.3c.2.3.5.5.6.6 0 .1-.4-.3-.6-.5-.1 0-.2-.1-.1 0l.4.4c.3.3.6.5.8.8.1.1 0 0 .3.4s.5.5.4.4c-.2-.1-.5-.5-.7-.7l-.7-.7c-.6-.6-.9-.8-1.5-1.5-.1 0-.8-.8-.1 0 .1.1 0 0 0 0l-.3-.3-.9-.9-1.2-1.2-.6-.6-.3-.3s1.1 1.2 1.4 1.5l.7.7c.1.2.7.8 1 1.2-.4-.4-.7-.6-.9-.9-.5-.5-.6-.5-.4-.4 0 0 .2.3.1.1l-.5-.5c-.3-.4-.7-.8-1.1-1.2-.2-.2-.5-.5-.4-.5 0 0 .2.2.5.4.4.4.8.8 1.2 1.3l.4.4-.4-.4-1.3-1.3c-1.1-1.1-1.8-1.8-2.7-2.8v-.1c0-.1-.7-.7-1.1-1.1l-.5-.5c.2.2.2.3 0 0l-.4-.4.4.4c0-.1-.2-.2-.1-.2 0 0-.2-.2-.3-.4-.2-.2-.4-.4-.6-.5l-1.1-1.1c-.6-.6-1.2-1.1-1.7-1.7-.6-.6-1.1-1.1-1.8-1.7s0 0-.1-.1c-.3-.2-.8-.3-1-.3h.4-.5c-.5.1-.7.5-.6.4.1 0 0 .1-.3.4l-.5.5c-.3.3-.4.4-.6.5-.2.2.1-.2.2-.3l.6-.6s.3-.3 0-.2c-.3.3-.5.5-.8.7-.5.5-.9.9-1.3 1.2-.3.3-.4.3-.2 0s.2-.2-.2.1c-.2.2-.4.4-.4.3l.4-.4c.2-.2.5-.5.4-.5 0 0-.3.3-.5.4-.6.5-1 1-.8.9.2 0-.7.9-.5.7-.5.6-1.1 1.2-1.7 1.7-.5.5-.3.2-.4.3-.3.2 0 0 .4-.5l.8-.8c.1-.1.3-.3.2-.3-.3.2 0-.1-.1 0 0 0-.3.2-.5.5-.3.3-.6.7-.9 1s-.8.8-.6.7c.3-.2-.1.2-.4.5-.5.5-1 1-1.4 1.5.2-.2.5-.5.9-.8.1-.1.2-.2.4-.3-.5.5-1 1.1-1.5 1.5l-.4.4c-.2.3.3-.3.5-.4.3-.2-.5.5.1 0 .2-.2.4-.3.5-.4.5-.4 1.1-1.1 1.6-1.6 0 0 .1-.2.1-.1l.2-.2c.2-.2.3-.3.2 0-.3.4-.7.8-1.3 1.4l-.3.3s.2-.2 0 0l-.4.4c-.2.2-.5.4-.6.6-.4.5-1.1 1.1-1.6 1.7-.5.4-.9 1-1.4 1.3s-.1.1-.3.3l-.2.2c-.2.2-.5.4-.5.5v.2l.2-.2 1.8-1.8c.6-.6.9-.9.7-.6s.2 0 .6-.4l3.2-3.2c.2-.2.4-.5.6-.6.3-.3.7-.7 1.1-1 .2-.1.5-.5.5-.4 0 0-.2.2-.4.5-.3.3-.4.5-.1.2.4-.3.7-.7 1.2-1.2l3.9-3.9c.1-.1.3-.3.3-.4l.2-.2v-.1c.1-.1.2-.2.4-.2.3 0 .5 0 .7.2h.6c0 .1.1.2.2.2l.3.3.3.3s.1.1 0 0c-.2-.2-.1-.1 0 0l.4.4.6.6c.2.2.5.6.9 1l.6.6c.3.3.5.6.6.6l1.2 1.2c.4.4.7.7.9 1l.7.7s.1.2.1.1l.3.3c.4.4.7.7 1 1.1l.8.8-.3-.3-.3-.3c.1.1.4.5.7.7l.7.7.2.2c-.3-.3-.2-.2 0 0 .3.2.5.5.9.9l.8.8c.5.4 1 .9 1.8 1.7l.6.6c.1.1 0 .1 0 0-.3-.3 0 0 .3.4.3.3.8.9.5.6-.1 0 0 .1.4.4l.5.5.2.2.2.2s0 .1.4.5c.3.4.6.5.7.6s-.2-.2-.4-.5c-.1-.1-.2-.2-.4-.5.3.3.3.3.3.2l.2.2.2.2s.6.7.9.9c.1.1.2.2 0 0-.6-.7-.4-.5-.8-.9l.9.9c.2.2.3.3.4.3 0 0 .5.4 1 .9.2.2.3.3.4.3s.4.4.5.5c.3.4 1.1 1.1 1.7 1.8l.5.5-.5-.4c-.2-.2-.3-.3-.4-.5l-.6-.6c-.2-.2-.2-.1 0 0 .2.3 0 0-.3-.2-.2-.2-.4-.4-.4-.3l.5.5 1.5 1.5s0 .2.4.5c.6.5.9.9 1.4 1.4l.6.6 1.4 1.4c.3.3.4.3.3.3 0-.1.1 0-.6-.8-.2-.2-.3-.3-.5-.6-.2-.2-.5-.5-.6-.7-.2-.2-.5-.6-.9-.9l-1.1-1.1c.4.4.7.6 1 1l.5.5-.5-.5-.6-.7c-.2-.2-.5-.5-.6-.7.2.2.5.5.7.6l1.5 1.5.6.6.8.8 1.4 1.4s-.2-.1-.5-.4c-.2-.2-.1-.1-.2-.1h.1c.1.3.1.3 0 .2-.2-.1.1.2 0 .2l.5.5c.2.2.4.3.2 0-.4-.5-.1-.2.3.2l1.1 1.1c.6.6 1 1 1.3 1.2 0 0 .2.1.3.2h.1s-.2 0-.5-.3l-.5-.5c-.4-.5-.7-.7-.6-.5h-.1c-.1-.1-.1 0 0 .1l.7.7c.2.1 0 0 0-.1-.1-.1-.3-.4-.2-.3.2.2.3.3.4.5l.5.5.4.2s.5.2 1 0c.5-.1 1-.6 1.1-.8s0-.3 0-.2q-.15.3-.6.6c-.2.2-.5.2-.7.2h-.2c.3 0 .6-.2 1-.6.2-.3.2-.2.2-.2l.1-.1c0-.1.2-.4.1-.8v-4.1 1-.8q0-.75 0 0v3.7c0 .5 0 1-.4 1.3l-.2.2c.2-.2.3-.4.2-.3 0 0-.2.3-.8.5h-.4.3c.2 0 .4-.2.6-.3s.3-.3.3-.4l-.2.2c-.1.2-.3.3-.6.4s-.5 0-.6 0h.2s.1 0 0 0h-.5c-.2 0-.4-.2-.6-.4l-.6-.6c-.4-.4-.7-.7-1-1.1 0-.1-.3-.4-.4-.4l-1-1-1-1c.1.1.2.1.2.2.4.4.5.4.4.3 0-.1-.3-.4-.5-.5l-.8-.8-.7-.7c-.2-.2-.1-.1 0 0l.7.7c.5.5.5.5.3.4 0 0-.1 0-.3-.3l-.4-.3s0 .1-.7-.6c-.1-.1-.3-.2-.5-.5.2.1.3.3.5.5 0 0-.1-.3-.5-.8-.2-.2-.2-.3-.5-.6l-1.2-1.2-1-1ZM94.1 33.4s-.1 0 0 0c.1-.1.3-.2.4-.2h.4c.2 0 .4.1.5.2-.1 0-.3-.2-.5-.2h-.4s-.2 0-.4.2m-8.8 8.7c-.5.5-.9.9-1.2 1.3-.2.2-.6.6-.7.6-.2.1.2-.2.3-.4l.1-.1c.5-.6 1.4-1.5 2.1-2.2l.6-.6c.1 0 .1 0-.3.4-.3.3-.7.6-.9.9.1-.1.3-.3 0 0Zm28.7 9.7s-.1 0-.4-.4l-1.1-1.1s-.2-.2-.1-.2l.2.1c.4.4.9.8.2 0-.2-.2.1 0 .2.2.5.5.9.8 1.4 1.4l.6.6.5.5c.2.2 0 0-.2-.1-.1-.1-.2-.2-.1 0 .2.3.1.2-.6-.5-.4-.4-.5-.5-.5-.4Zm-4-4.1c-.8-.8-1.2-1.2-1.8-1.9-.2-.2-.4-.5-.4-.4l.5.5 1.6 1.6c.5.5.4.5.3.4-.2-.2-.2-.2 0 .2l-.2-.2ZM96 33.5s.6.6 0 0l-.1-.1h-.2l-.2-.2c-.3-.2-.3-.2-.5-.2h-.2.4c.4.1.5.2.6.3zl.1.1Zm23 23.7-.5-.5c-.1-.1.2.1.4.3l.7.7c.1.1.4.3.4.4 0 0 .3.4.6.7l.5.5c-.2-.1-.4-.3-.6-.5-.3-.3-.6-.6-.9-1-.2-.2-.4-.3-.5-.5Zm-25.8-23-.4.4-.9.9-.4.4c-.1 0 0 0 0-.1.2-.3 1.1-1.1 1.4-1.5 0 0 .1-.1 0 0 0 .1-.2.3 0 0Zm18.7 15.3-.6-.6s.2.2.4.3c0 0 .4.3.4.4s.4.4.8.9zm1.4 1.3-.3-.3c-.2-.2 0-.1-.3-.4.1.1.3.3.4.3.6.6.8.8 1.3 1.2 0 0-.9-.8-1.1-.9Zm-24.1-13q.3-.3 0 0c-.4.5-.4.5-.2.4 0 0 .2-.1 0 0l-.3.3c-.2.2-.2.2-.2.1q.2-.3-.6.5c.4-.5 1-1 1.2-1.2Zm1.1-1.2.3-.3c.3-.3 0 0 0 0-.1.2 0 .2-.6.7-.2.1-.5.5-.5.4 0 0 .3-.3.5-.6.3-.2.3-.3.3-.3Zm31.5 22.7s.2.1.3.3c.3.3.7.7.7.8 0 0-.2-.2-.5-.4-.2-.2-.6-.6-.6-.7Zm1.4 1.7c.6.5.8.8 1 1-.5-.4-.8-.8-1-1m-7-7.1c.1 0 .3.2.4.4l.2.2s-.2-.1-.3-.2l-.7-.7c.2.1.3.2.4.3m-19-19-.3-.3.5.5.3.3zm-9 4s-.1.2-.3.4l-.2.2s0-.1.3-.3c.2-.2.3-.3.3-.2Zm2.8-2.7c-.4.4-.2.3-.6.8q.2-.3.6-.8m7.2-.3-.3-.3.4.4.3.3zm14.3 14.5s-.1 0-.2-.2c-.3-.3-.4-.5-.6-.6.3.3.6.6.7.8Zm2.6 1.9.1.1s-.2-.1-.5-.5c.2.2 0 0 .4.3Zm.4.7-.3-.3s.2.1.2.2l.5.5c-.1 0-.2-.2-.4-.4M91.4 35.8c.1-.2.3-.4.5-.5.2-.2.1 0 0 0 0 0-.4.3-.5.4Zm19.7 13.1-.7-.7zm6.3 6c-.1 0-.4-.4-.8-.7l.7.7ZM88.9 38.5l.2-.2s-.2.3-.4.4c-.1 0 0 0 .2-.2m-1.5 1s0-.1.2-.3c.1-.1.2-.2.3-.2l-.3.3zm10.9-3.7c.4.4.5.5.8.9-.6-.6-.6-.6-.8-.9m-9.6 2.8q.15-.3.6-.6c-.2.2-.3.4-.6.6m10.5-1.7.4.4-.5-.5Zm-5.5-3 .4-.4.2-.1h.2c-.2 0-.3.1-.4.2l-.4.4Zm6.9 4.3s-.1 0-.1-.1c-.2-.2-.2-.2-.2-.3l.4.4Zm2 2.1.2.1.2.2-.1-.1-.2-.2Zm-1.1-1.2c.2.2.4.4.6.7-.3-.3-.4-.4-.6-.7m2.7 2.9-.5-.5zm22.1 21.8c-.2-.1-.3-.3-.5-.4.2.2.3.3.5.4M99 36.7l-.6-.6c.2.1.3.3.6.6M86.4 41s0 .1-.2.2h-.1l.1-.2s.2-.1.1-.1Zm30.9 14s-.1-.1 0-.1c0 0 .1 0 .2.2v.1zm11.2 7.4v.1-.5.3Zm-39-24.2s0-.1.2-.2l.1-.1-.1.1zm.7-1.2s-.1.1 0 0l.1-.1zm-3.6 3.1-.1.1s-.1.1-.1 0l.2-.2Zm5.3-4.8s.1-.1.2-.1l-.1.1Zm-3.5 2.8h-.1s.1 0 .1-.1l-.1.1Zm8.3-3.7-.1-.1zl.1.2-.2-.2Zm3.4 3.4-.1-.1-.1-.1.1.1Z" class="st0"/><path d="M72.3 54.4c-.1.2.4-.4.5-.4.2-.2.5-.4.8-.8l.8-.8c.3-.3.3-.2.2-.1-.2.2.2-.1.4-.3.5-.5.7-.6 1.1-1 .2-.2.2-.2.2-.1-.3.4.2 0 .2 0-.2.2-.5.4-.7.7-.6.6-.9.9-1.6 1.5-.3.3 0 0 .1-.2.4-.5.3-.4-.4.2-.4.4-.9.9-1.1 1-.6.5-1.2 1.2-1.8 1.8l-.6.6.2-.2c.3-.3.3-.4 0-.1-.2.1 0 0 .1-.2l.8-.8c.3-.3.5-.5.6-.7s-.2.1-.3.2c-.3.2-.8.9-1.2 1.1-.3.3-.6.5 0-.1l.3-.4q.3-.45 0 0c-.4.4-1 1-1.4 1.3l-.4.4c-.5.5-1.1 1.1-1.6 1.5l-.3.3s-.1.2 0 .1c.3-.2 0 .2.5-.3.2-.2 0 0 0 0l-1.2 1.2c-.3.3-.1 0 0 0 .1-.2 0 0-.3.2s-.4.4-.6.6c-.1.2-.3.3-.5.5s-.3.3-.2.3c.3-.1.4-.3 1.6-1.4l.2-.2c-.2.2-.3.4-.5.5l-.6.6c-.2.2 0 .1 0 0 .3-.3.2-.2-.1.2l-.3.3s.3-.2.4-.4l.6-.6c.5-.4.5-.5.2-.2-.4.4-.1.2 0 0 .3-.2.6-.6.9-.9.4-.4.7-.7 1.1-1 .2-.1.4-.4.6-.6l.8-.8c.5-.5.7-.7 1.1-.9l-.5.5c-.5.5-.6.6-.6.7l.8-.8s-.4.4-.3.4l.2-.2 1.2-1.2c.4-.4 1.4-1.4 1.6-1.5 0 .1 0 0 .2-.1l.9-.9.4-.4-.4.4c-.2.2-1.1 1.1-.4.5l-.1.2.8-.8c.3-.4.6-.7 1-1 .3-.2.6-.6 1.1-1 .5-.5 1-1 1.3-1.2l1.1-1.1c.2-.2.4-.5.8-.8.4-.4.5-.5.3-.4-.3.2-.5.5-1.1 1.1-.3.3-.5.6-.7.7s.2-.3.4-.4c0-.1.2-.2.3-.3.4-.4.4-.5.2-.3l-.5.5c-.4.4-.8.7-1.2 1.2l-.3.3c-.2 0-.3.1-.2 0 0 0 .5-.6.7-.8 0-.1.3-.3.4-.4l.2-.2c-.2.2 0-.1-.1 0 0 0 .1-.1.2-.3l.4-.4c.2-.1.6-.5.5-.4 0 0 .2-.1.3-.3l.4-.4c0-.1 0-.1-.2.1-.5.5-.7.6-.7.6.3-.3.7-.6 1-.9l.4-.4s-.3.3 0 0l.8-.8 1.1-1.1s-.4.3-.4.4l.3-.3.6-.6H83c-.2.2-.5.4-.7.7l-.8.8-.6.6c-.6.7-1.2 1.3-2.1 2.2.1-.1.3-.4 0-.1l-.5.5c-.2.2-.5.5-.6.7-.1.1 0 .1.2 0 .3-.2.2 0-.3.4L76.3 51s-.4.4-.7.6v-.1c.5-.5.8-.9 1.4-1.4l.4-.4c-.3.2-.5.5-.9.9-.2.2-.4.4-.6.7-.5.5-1.1 1-1.5 1.5l-.4.4c-.5.4-1.3 1.2-1.6 1.7ZM69 57.6c.4-.4.5-.5.6-.5s-.2.2-.3.4l-.3.3c-.3.2-.5.4-.7.7 0-.1.2-.3.7-.9m-1.2 1.2-.2.2c.1-.2.4-.5.7-.7 0 .1-.2.3-.5.6Zm-2.2 1.8.2-.2.1-.1v.1l-.2.2Zm3.3-3.1.1-.1s.1-.1.2-.1l-.1.2-.1.1ZM127.8 56.3v1.3c0 .7 0 .6.1-.3v-.4 1.4c0-.2 0 0 0 0V60v-5.6c0-.2 0 0 0 0v.2-4.3 1-.8c0 .4 0 .3 0 0v6.2-.8.5Zm.1-4.5v1zm0 2.9v.4-.4M128.5 45.6v-3.2 3.1c0 .2-.1.4-.2-.2 0-.1 0-.3 0 0v4.1-2.1c0-.2 0-.4 0 0v4.9-8.3 2.3-.3Zm-.2 3v.3-.7zm.1-3.2v.8z" class="st0"/><path d="m69.7 57.5-.8.8c-.1 0-.5.5-.7.7-.6.6-.8.9-1 .9 0 0-.3.2-.6.5-.2.2-.4.3-.5.4-.2.2.2-.2.3-.2 0 0 .1 0 0 0l-.4.4c-.2.2-.5.4-.5.5l-.2.1c-.2.2-.2.2-.2.3 0 0-.1.2-.4.4l-1.3 1.3c.1 0 .4-.4.8-.7l.9-.9c.2-.2.6-.5 1-.9l1.3-1.3-.2.2c-.2.2-.3.4-.3.4l.4-.4.7-.7.5-.5c.1-.1-.3.3-.3.2.4-.4.8-.9 1.3-1.3 0 .1-.6.6-.7.7.3-.3 1.1-1.2.9-.8 0 0 .3-.2.4-.4l.3-.3s.1-.2-.1 0-.2.1 0 0c.4-.5.1-.2-.1 0-.3.3-.7.6-.5.3ZM66 61.3c.6-.6.7-.8 1.3-1.3-.2.3-.6.7-1.3 1.3M128.6 49.7v3.5-2.1.6c0-.5 0-.3 0 0 0 .7 0 .4.1.6v-3.8.2c0 .3 0 0 0 0v-1.5.2q0 .45 0 0c0-.5 0-.4 0 0v2.2Zm.1 1.7v.3-.7.3ZM95.2 32.3c-.5-.1-.7 0-.8 0-.2 0-.5.1-.7.3-.2.1-.2.2-.3.3 0 .1-.2.2-.2.3-.3.3-.2.3.2-.1l.1-.1h.3c.1-.1.3-.2.4-.2h.2s-.2 0-.5.2c-.2.1-.4.3-.4.4l.2-.2c.3-.2.5-.2.5-.2s-.1 0-.2.1c0 0-.1 0-.2.2-.1 0-.2.2-.3.3-.3.2-.6.5-1 1l-.6.6c0 .1 0 0 .4-.3.5-.5 1-1 1.5-1.4 0 0 .3-.2.4-.2.4-.2 1.1-.1 1.5.3h-.2c.5.4 1 .9 1.5 1.4.2.2.4.3.2.2l-1.7-1.7h.3s-.1 0-.2-.1c-.3-.2-.4-.2-.6-.3-.1 0-.2 0 0 0h.2s-.4-.1-.8 0c-.3 0-.6.2-.5.1 0 0 .4-.2.8-.2.5 0 .9.2 1.3.5h-.6l.9.9-1-1h.7c-.2-.2-.6-.4-.8-.4Zm.4.8.4.4-.5-.5ZM128.5 55.3v-2 4.9-.2c0-.3-.1-1-.2-1.2v-3.9 2.3-1 1.1ZM92.4 1.6c.2-.1.4-.2.5-.3.3 0 .7-.3 1.2-.3.6-.1 1.2 0 1.8.1.4.1.8.3.9.4 0 0 .6.3.8.6.1.1.1.2 0 0-.2-.2-.3-.3-.4-.3 0 0-.4-.3-.3-.1.1.1.3.3.6.5l.5.5h-.1c-.2-.1-.4-.3-.5-.5-.6-.6-1.4-.9-2.2-1h-.8c-.2 0-.5 0-.6.1-.4.1-.9.3-1.3.7-.2.2-.4.3-.6.5l-.5.5c-.3.3 0 0 .1-.3.3-.3.7-.7 1-.9ZM87.4 39l-.5.5c-.5.5-.6.6-.4.3 0-.1.1-.2 0 0-.5.4-.8.7-1.3 1.2-.7.7-1 1-.9 1 0 0 .2-.2 0 0-.1.2-.2.2 0 0q.45-.3.9-.9c.2-.2.4-.5.7-.7.7-.7 1.3-1.3 1.4-1.5Zm-2.5 2.4-.2.2-.1.1s0-.1.2-.2c.1-.1.2-.2.2-.1ZM127.8 47.6v-3.5c0-.5 0 .6.1 1v4.1-1.6ZM81.8 44.5l-.3.4c-.3.3-.4.4-.6.5s-.4.4-.9.8l-.4.4s-.2.1 0 0l.2-.2c.7-.6 1.4-1.4 2.1-2.1.2-.2.3-.3.4-.5.2-.3.5-.6.8-.8.3-.3.2-.1.1 0 0 0-.1.2-.1.1.4-.4 0 0 0 .2 0 0 0 .1-.3.4-.2.2-.4.3-.4.3v-.1s.2-.3 0 0zc-.2.2-.1.2 0 .1ZM74.3 52.1s.2-.3.9-1.1c.2-.2.4-.4.5-.6 0-.1.3-.4.5-.5.3-.2.3-.3.2-.1-.2.3-.5.6-1.1 1.3-.1.1-.2.2-.3.4-.3.4-.6.6-.7.6l-.3.3-.3.3c0-.1.3-.3.4-.4zM117.7 22.1c.3.3.6.6.6.5 0 0 .4.4.7.6l1.9 1.9c.3.3.3.4.3.3 0 0-.3-.2-.7-.6-.7-.7-1.4-1.4-2.1-2zM127.8 63v.2c-.2.3-.7.5-1.1.4-.3 0-.5-.3-.7-.6l-.7-.7c-.2-.1-.3-.3-.3-.3l.2.2.5.5.6.6q.15 0 0 0l.3.1c.3.1.6 0 .9-.1zM68.1 59.5l.4-.4c.2-.2.6-.6.9-1 .4-.4.3-.3.2-.1 0 0 .2 0-.5.6-.1.1-.3.4-.5.5-.5.5-1 .9-1 .9s.2-.2.4-.5Z" class="st0"/><path d="m128 63.1-.3.3s-.2.2-.2.1c0 0 .1 0 .2-.2q.3-.3.3-.6v-1.4V63c-.2.4 0 0 0 0ZM128.7 57.9v2-2M80.1 47.3s-.2.2 0 0 .4-.4.6-.5l.2-.2.2-.2c.1 0 .2-.2.2-.1 0 0-.1.2-.2.3-.4.5-.9.8-1 .8ZM87.4 39s-.4.3-.7.6c0 0 0-.1.1-.2 0-.1.3-.3.5-.5l.7-.7c.1-.1.3-.3.4-.3 0 0-.1.2-.3.3-.3.3-.4.5-.8.8ZM128 42.5V44v-1.5M82.9 10.1s-.2.1.2-.4c.5-.5.9-.9 1.3-1.2l-.2.2c-.5.5-.9.9-1.3 1.4M108.8 46.1l-.4-.4s.5.4.8.7l.5.5-.8-.8ZM91.6 1.3c-.3.3-.7.7-.7.6 0 0 .3-.4.7-.7.3-.3 1-.6 1-.6s-.8.4-1.1.7ZM84.8 42.8c0 .1-.3.4-.6.7L83 44.7c-.1.1-.3.2-.3.2l.3-.3zM108.1 46.1c.3.3.2 0 .9.8l.3.3c-.3-.2-.7-.7-1.2-1.2ZM86.9 40.9l-.7.7s.2-.2.4-.5l.9-.9s-.4.4-.6.7M115.3 19.7c-.4-.4-.6-.7-1-1.1l.2.2c.3.3 1 1 1 1.1l-.3-.2ZM106.5 43.6l-.3-.3-.7-.7.4.4zM98.9 36.4c.4.4.7.7 1.1 1 .2.1.3.3.5.5-.2-.2-.3-.3-.6-.5zM128.7 41.5V43c0 .4 0 0 0 0v-1.4ZM60.7 47.2v1-1.5zM61.4 62.9c0 .3.3.5.2.5l-.2-.3c-.1-.2 0-.6 0-.7v.5M99.8 3.3l-.5-.5s.3.2.5.5c.3.3.3.4.3.4s-.2-.1-.4-.3ZM121.7 25.2c-.2-.2-.5-.5-.5-.6 0 0 .2.1.3.3l.7.7-.5-.5ZM83.8 43.1c-.2.2-.4.4-.6.7-.2.2-.3.3-.3.2 0 0 .2-.2.4-.5.3-.3.3-.3.5-.4M128.1 41.4v-.5 1zM64.4 62.2c-.3.3-.4.3-.4.4l.2-.3c.3-.3.3-.3.4-.3zM106.6 43.9c-.4-.4-.8-.7-1-1zM104.4 41.6s-.1 0-.3-.3l-.3-.3-.1-.1h.1l.3.3.3.3ZM113.3 16.8l-.3-.3.4.4c.1.1.4.4.3.4 0 0-.2-.2-.5-.4ZM81.5 45.6s-.2.2-.3.2l.2-.2.4-.4c.1-.1 0 0 0 0l-.3.3ZM108.9 13.5l.5.5s-.1 0-.3-.2l-.4-.4.2.2ZM85.4 42.3c-.2.1-.5.5-.5.5s.2-.3.4-.4l.4-.4zM60.9 45.7v-1.3 1.4ZM120.9 58.7s.1 0 .3.3c.2.2.4.4.3.4 0 0-.2-.1-.3-.3-.2-.2-.3-.4-.3-.4M81 45.8l.4-.4s0 .1-.2.3-.5.5-.5.4zM128.3 60.2v.9-.8ZM119.6 23.1c.5.5.6.5.8.7.2.3.2.2 0 .1s-.4-.4-.8-.8M121.3 25.8s.3.2.5.4l.2.2s-.2-.1-.4-.3zM105.7 9.1c.2.2.3.4.3.4s-.1 0-.3-.2-.2-.3-.3-.3l.2.2ZM128.7 42.1v.9-.9M114.3 52.5l-.3-.3.3.2.3.3-.3-.3ZM122.3 60.2h.1s-.2 0-.5-.3c-.1-.1-.2-.3-.1-.2.2.1.3.3.5.5M123 27.5c-.1-.1-.2-.3-.2-.3l.4.4.2.2s-.2-.1-.4-.3M71.6 22.3l-.7.7zM78 49.1l-.2.2-.3.3.2-.2c.2-.2.3-.2.3-.3M64.5 62.2l-.2.2c-.2.2-.2.2-.3.2l.2-.2.3-.3ZM109.9 47.9l.4.4s-.1 0-.2-.2c-.2-.2-.3-.4-.4-.4 0 0 .1 0 .2.2M127.8 61.6v.7-.7M103.7 41.2l.3.3-.2-.2-.3-.3zM98.1 35.6l-.2-.2zl.2.2zM82.7 44.2l-.2.2zc.1-.2.2-.2.2-.2l-.2.3ZM128.3 58.2v1.2z" class="st0"/><path d="M127.9 62.9c0 .2-.1.2-.1.2s0-.2.1-.3v-.2zM77.2 49.3s-.1.2-.3.3c-.1.1-.2.2-.2.1l.3-.3.1-.1ZM107.3 45.3c-.1 0-.2-.1-.4-.4l-.1-.1zM67.6 59.9s-.1.2-.3.3c0 0-.2.2-.2.1 0 0 .1-.1.2-.3l.2-.2ZM104.9 42.4l.3.3zl-.2-.2s.2.1.3.3ZM60.8 58.8v-.2.5zM124.5 61.6l-.2-.2-.2-.2.2.2zM128.8 37.7v.6-.6M119.7 56.6s-.2-.2-.4-.3c-.1-.1-.2-.2-.1-.2l.3.3zM72.3 54.4c-.1.2-.3.3-.4.5l.5-.5ZM104 8.8l-.2-.2s.1 0 .2.2l.2.2s-.1 0-.2-.2M68.1 58.9l-.3.3-.2.2.3-.3z" class="st0"/><path d="m104.9 42.4-.1-.1-.2-.2.1.1zM102.1 39.6l-.2-.2zl.2.2zM60.8 46.6v-.2zv.3-.2ZM115.9 53.8s-.1 0-.2-.2c-.1-.1-.2-.2-.1-.2l.2.2.1.1ZM120.4 58.3l-.2-.1-.1-.1.2.2v.1ZM68.4 59.1l-.2.2v-.1l.2-.2zM110.7 14.3l.2.2zl-.1-.2.2.1ZM72.3 21.7l.1-.1.1-.1-.1.1zM80.2 47c.1-.1.1-.1.1 0 0 0 0 .1-.2.2H80l.1-.2ZM114.8 52.7s.1.1 0 .1l-.2-.2s.1 0 .2.2ZM128.3 61.8v.2-.3ZM80.2 46.6v.1l-.1.1.1-.1ZM122 58.9l.1.1-.2-.2-.1-.1.1.1ZM78.7 47.5l-.2.2.1-.1ZM99.1 3.4l-.1-.1zl.1.1zM85.3 42l-.3.3zM195.5 32.5 164.2 1.2c-.9-.9-2.3-.2-2.3 1V29c0 1.2-1.5 1.8-2.3 1L130.6.9c-.9-.9-2.3-.2-2.3 1v30.3l31.3 31.3c.9.9 2.3.2 2.3-1V35.7c0-1.2 1.5-1.8 2.3-1l29.6 29.1h30.3c1.2 0 1.8-1.5.9-2.3l-29.6-29.1Z" class="st0"/><path d="M155.2 58.7c-.5-.5 0 .1.4.5.2.2.6.5.7.7s-.2-.1-.4-.3-.3-.3-.2-.1c.8.8 0 .2.6.8.3.3-.5-.4-.4-.3l-.9-.9c-.3-.3-.2-.3 0-.1s.1 0-.2-.3c-.4-.5-.9-.9-1.4-1.4l-1.3-1.3c-.5-.5-1-1-1.5-1.4.1.1.2.3.3.4l-.6-.6c-.2-.2 0 0 .3.2-.9-.9-1.1-1.2-1.4-1.4-.3-.3-.7-.6-1-1-.6-.7-1.5-1.6-2.3-2.3-.3-.3-.3-.3-.3-.2 0 0 .2.2-.2-.1l-.5-.5c-.1-.2-.9-1-1.5-1.5l-.5-.5c-1.2-1.2-1.2-1.2-2.1-2-.4-.4-.9-.8-1.6-1.5-.5-.6-1.2-1.3-1.6-1.7-.3-.2-.3-.2-.8-.8 0 0 .1 0 .2.1.2.1 1.1 1 .7.5 0-.1.2.2.4.4l.5.5-.4-.4c-.3-.3-.7-.7-.3-.4l1.4 1.4c.3.3.5.5.5.6 0 0-.4-.4 0 0l.9.9.8.8 2.1 2.1c1.4 1.4 1.8 1.8 1.8 1.6 0 0 .2.1.8.7.5.5.9.9 1.2 1.1.1 0 .2.1-.2-.2-1-1-2-2.1-3.1-3-.5-.4-1-1-1.6-1.6l-1.3-1.3c-.5-.4-.8-.7-1.2-1.1-.2-.2-.2-.1-.7-.7l-1.2-1.2c-.3-.4-.2-.3-.1-.2l.6.6c.5.5.5.5.5.4 0 0-.5-.6-.8-.9-.6-.7-.8-.8-1.1-1-.2-.1-.4-.3-.9-.8-.1-.2-.3-.3-.5-.5-.1 0 0 0 0 .1.3.4 1 1.1 1.2 1.3l-.8-.8-.8-.8c-.4-.3-.8-.6-1.1-.9-.1-.1 0 0 .3.4.2.2.4.4.6.7.1.2.4.4.4.4s-.2-.2-.4-.3c-.3-.3-.8-.7-.9-.8-.2-.2-.8-.7-1.4-1.3l-1.1-1.1c-1.2-1.2-.3-.2-.5-.3 0 0 0 .1.3.3.5.5.3.2.5.4.2.1.2.2.5.5l.3.3c.1.2-.1-.1-.3-.2-.4-.4-.3-.2.1.2 1.2 1.2 2.1 2.2 3.2 3.3.3.3.4.5.4.4-.1 0-.3-.3-.6-.6-.5-.5-.8-.8-1.2-1.1-.3-.3 0 .1.4.4.4.4.8.8 1.2 1.1.3.3.4.4.3.4-.2 0 0 0 1 1.2l.6.6c.2.2 0 0-.1-.2 0-.1-.2-.2 0 0 .4.5.8.8 1 1.1.3.4.9 1 1.6 1.7s.3.3.4.3c.2.1.6.6 1.1 1.1.4.4.8.8.5.6-.1 0 0 0 .2.2l1.8 1.8c.5.4 1.2 1.1 1.7 1.7.4.4.5.6.8.9.1.1.2.2.3.4.3.4.7.7.9.9.3.2.2.2 0-.2-.3-.3-.7-.8-1.2-1.2l-3.5-3.5 2.6 2.6c.9.9 1.8 1.8 2.6 2.7l.2.2 4.2 4.2c.5.5 1.2 1.2 1.5 1.6.6.7 1 1.1 1.9 1.9l.9.9.5.5c0 .1 0 .1-.2-.1l-.9-.9c.7.7.6.7 1 1.1l.6.6.2.2.3.3c.2.2.6.3.9.3.7 0 1.2-.4 1.4-.6.5-.7 0 .3-.8.4h-.4c.2 0 .7-.2 1.1-.6.2-.2.3-.5.4-.9v-6.6.4-5.9 3-18c0-.2 0-.4.2-.5.2-.3.6-.4.9-.4.2 0 .5.2.6.3l.6.6c.5.4 1 .9 1.3 1.2.4.3.2 0-.4-.6l-.8-.8s.6.6.5.4c0-.1-.4-.4-.6-.6l-.2-.2c-.2-.1-.3-.3-.4-.4-.1 0-.3-.1-.3-.1s.4 0 .7.4l1.1 1.1.8.8c.1.1 0 .1-.3-.1-.1 0-.3-.3-.2-.2.7.7 1.2 1.2 1.3 1.4l.4.4c1 1 2 1.9 3 2.9.7.7 1.6 1.5 2.1 2 .4.3.8.7 1.4 1.3.2.2.6.6.5.4-.1-.1-.3-.4.3.2s1.4 1.3 1.6 1.6c.1.2.2.3.7.8 0 0 0 .1.3.3s.3.2.2.2l.3.2c.2.2.1.2.1.2s.3.4.7.7c.2.2.5.4.7.7 1.1 1.1 1.1 1.1.8.7l.2.2c.6.5 1.4 1.3 1.3 1.1 0 0 .3.3.8.7l.6.6.6.6c.2.2 1 1 .4.5-.1-.1.1.2.4.4.4.4 1.3 1.2 1.3 1.2l.2.2c1.3 1.3 2.6 2.6 3.9 3.8-.5-.4-1.1-.9-1.7-1.6-.6-.6-1.1-1.1-1.7-1.6.9 1 2 2 3 3l1.1 1.1c.3.3.4.4.1.2-.3-.3.1.2.8.9s1.1 1 1.7 1.6l.6.6.3.3h24.9-.7 5.1-.2 1.5c.4 0 .8-.3.9-.4.3-.3.8-1 .6-1.8 0-.3-.2-.5-.4-.7 0-.1-.2-.2-.2-.3l-.2-.2c-1.3-1.3-2.7-2.6-4-4-.6-.6-1.3-1.2-1.9-1.9l-.4-.4c-.7-.6-1.3-1.2-2.5-2.2-.3-.2-.5-.4-.2-.1.5.5.9 1 1.6 1.7l.4.4q-.7-.6.2.3l.4.4c.6.6 1 1.1 1.7 1.7l.4.4s.1.1 0 0c-.7-.7-1.5-1.4-2-1.8 0-.1.4.3 0-.1l-3.9-3.9s-.1-.1-.2-.1c-.5-.5-1.1-1-1.7-1.6-.2-.2-.4-.4-.4-.5 0 0 .2.1.5.4l.9.9.3.3-.3-.3-1.3-1.3-.7-.7c-.2-.2 0 0 .2.1.6.5.1 0-.3-.5-.1-.1-.3-.4-.5-.5-.9-.8-2.3-2.2-3.5-3.3-1.1-1-2-1.9-2.3-2.1-.2-.2-.5-.5-.9-.8-.5-.5-1.1-1.1-1.2-1.3-.4-.5-.5-.6-1.9-1.9 0 0-.1 0-.2-.1-.4-.4-.5-.5-.3-.4l.2.2s.6.6.2 0c-.5-.5-.9-1-1.5-1.6s-.9-.8-1-1c-.5-.4-1.4-1.3-2.2-1.9-1.3-1.3-1.2-1-.6-.4.5.5.7.9 1.6 1.7.6.6.8.9.5.6 0 0-.1-.1 0 0 .5.5.6.7 1.7 1.8-.4-.4-.8-.7-.5-.4.2.3.6.6.7.7.3.2.2.2.3.3s.3.4.6.6l.3.3s-.3-.3-.5-.4l-1.4-1.4c-.3-.2-.5-.5-.6-.5s.2.2.4.4c.3.3.2.2 0 .1-.1 0 0 0 .1.2l3 3 .6.6c.5.6 1.5 1.5 2.2 2.2.3.3.6.5.8.8 1.4 1.3 2.9 2.8 4.3 4.2.8.8 1.8 1.7 2.6 2.6.6.6.8.7.9.9.2.2-.3-.3-.6-.7.2.2.4.4.5.4l1.2 1.2s.4.4.8.9c.3.3.8.7.7.6-.3-.3.7.7.7.6l.4.4c.7.7 1.1 1.1 1.4 1.3l.5.5s.4.5 1 1l.6.6c.2.2.1.2 0 .2-.2-.1-.5-.5-.9-.8-.3-.3-.8-.7-1.2-1.1s-.8-.7-.8-.7.6.7 1.1 1.1l.6.6c1 1 2 1.8 3.2 3 .2.2.3.3.4.3.2.1.4.3.7.6l.5.5c.2.2.3.3.4.5 0 0 0-.2-.2-.3h-.1v.1c.1.2.2.5.1.8 0 .2-.1.3 0 .2q0-.15 0 0s-.1.2-.3.4-.6.1-.5.2c0 0 .4 0 .7-.2.2-.2.3-.5.3-.8 0-.1 0-.3-.1-.4q0-.15-.3-.3c-.2-.1-.3-.3-.5-.5l-.1-.1s.2.1.4.4l.4.4c.1.1.2.2.2.4.2.5-.2 1-.1.9 0 0 .3-.3 0 0-.1.2-.3.3-.5.3h-.7c-.4 0-.8 0 0 0h.6-3.8c.9 0 .5 0 0 0h-5.5.7-10.3 2.6-5.3 1.5-.4c-.7 0-2.7 0-2.5-.1H194l-.9-.9c-.8-.8-1.7-1.6-2.4-2.4l-.6-.6c-.9-.8-1.7-1.7-2.6-2.5-.4-.3-.9-.9-.6-.6.1 0 .4.4.2.1-.3-.3-.6-.7-1-1-.4-.4-.7-.6-.3-.2.5.6.3.4-.5-.4-.3-.3-.6-.6-.9-.8-.5-.5-1-1-1-.9 0 0-.1 0-.3-.3-.2-.2-.2-.2-.1-.2.2.2.4.4.7.6.2.1.3.3 0-.1-.3-.3-.6-.6-.8-.7-.1 0-1.3-1.3-1.7-1.6-.5-.5 0 0 .1 0 0 0 .5.4.2 0-.4-.4-.5-.5-.7-.6-.4-.3-.8-.7-1.3-1.2-.7-.7-1.5-1.5-2.1-2.2-.3-.3-.5-.6-.9-.9-.3-.3-.8-.7-.8-.7l.8.8.7.7c-.2-.1.1.2.2.3-.7-.7-1.3-1.3-1.9-1.8-.8-.8-.9-1-1.4-1.5l-.1-.1c-.2-.1-1-.8-2.5-2.2l-1.1-1.1c-.2-.2-.6-.5-.8-.7l-.4-.4s-.1 0-.2-.1c0 0-.1 0-.4-.4l-1.4-1.4c-.2-.3 0 0 .2 0 .3.3.7.6 1.5 1.4l.7.7c-.3-.4-1.2-1.2-1.9-1.9-.5-.5-.8-.7-.7-.6 0 0-.1 0-.3-.2-.9-.8-1.1-1-1.4-1.3-.1 0-.2-.1-.5-.5-.2-.2 0-.1 0 0 .1.1.2.2 0 0-.1-.1-.2-.3-.4-.4-.1-.1-.3-.2-.4-.3-.3-.1-.6-.1-1 0-.4 0-.7.3-.9.7-.2.3-.3.8-.2 1.1v1.9-.2 3-4.8 9.5-1.1 17V60v1-.2 3c0 .2 0 .4-.2.5l-.3.3c-.2.2-.5.2-.4.2h-.1c-.1 0-.4 0-.6-.2-.2-.1-.4-.3-.5-.5-.6-.7-1.6-1.6-2.2-2.3l-.8-.8c-.4-.4-.8-.8-1.3-1.2Zm6.9-3.7v.4-1.8.7-.4V55m36.7 9.2h-.4 5.2-4.8m25.8-2.9c.3.2.5.5.6.6 0 0-.2-.2-.4-.3.1.1.3.3.4.5s.1.5 0 .7c0 .3-.3.6-.5.7l.1-.1c.1-.1.3-.4.3-.6v-.4c0-.1 0-.4-.3-.7-.2-.3-.5-.5-.6-.6.1.1.3.3.5.4 0 0-.1-.2-.2-.3Zm-62.7-6.7v.4-2.3V56v-1.5Zm26.2 3.5c.2.3.6.6.9 1 .2.2.5.4.5.4l-.4-.4-.4-.4.5.5c1.3 1.3 2.4 2.3 3.4 3.3l.3.3.9.9h2-1.9l-.4-.4c-.1 0-.2-.1-.1 0l.2.2.3.3h.6-.8l-.2-.2c-.1-.2-.4-.4-.6-.6-.6-.6-1.3-1.2-1.8-1.8l-.5-.5s-.5-.5-.1 0l1.3 1.3c-.5-.4-1.3-1.2-2.2-2l-1-1-.4-.4c.1 0 .4.3.7.7l.2.2c.3.3.6.6.8.7.2.2 0 0-.2-.3l-.7-.7c-.4-.3-.7-.7-1.1-1.1-.6-.6-1.5-1.5-1.8-1.9.8.7 1.4 1.4 1.9 1.9Zm27.5 5.9h-2.2 1.9-3.1 5.1c-.2 0 0 0 0 0zm-12.8-.3h1.8-4.9c-1.7 0-.9-.1.5-.2 0 0 1.5.1 2.6.1Zm-.5.2h.4-4.2 3.8m-24.2-15.6-.2-.2.4.4c-1.3-1.2-2.5-2.4-3.8-3.7.3.2.6.6 1 .9.2.2.4.4.4.3-.2-.2.4.3.8.8.9.8 1.7 1.7 2.6 2.5-.2-.1-.6-.5-1.2-1M219.9 64h-1.3zh1.8zM162 36.1v-.8c0-.2.2-.4.4-.6.4-.3.8-.2.9-.2h-.3c-.3 0-.7.2-.8.5-.2.3-.2.6-.2 1.1s0 .2 0 0v1.6zm52.9 27.7h-2c-.5 0-.4 0 0 0h.2-.1 2.5zm-53.1-8.1v.9-4.9 3.9Zm29.3 5.7s0 .1.3.4c.4.4-.4-.3-.5-.5-.2-.1-.5-.4-.5-.5s-.7-.8-.6-.8l.4.4c.5.5.9.9.9 1m-29-14V50v-3.8zm55.6 16.2h-.4 4-3.6m-50.6-26.1c.8.8 1.6 1.5 2.4 2.4-1.8-1.7-1.8-1.7-2.4-2.4m-5.3.1v.2-1.3 4zm-14.2 14.3-.7-.7c-.1-.1-.3-.3 0-.1l.7.7c.3.3.6.7 1.1 1.1l-1-1Zm31-2.7-.4-.4s-.2-.3.2 0l.9.9.2.2c-.3-.3-.9-.9-.9-.8Zm-37.6-4c-.5-.5-.2-.3-.2-.3l-.4-.4c-.1-.1-.5-.4-.4-.4 0 0 .2.2.6.5.5.5 1.1 1.1.7.8.2.2 0 .1-.2-.2Zm20.9 10.5v2.8s0 .2 0 0v-2.8m11.2-12s.2.2.5.4c.2.2.3.4.2.2-.3-.2-.3-.2-1.3-1.2.3.2.5.4.6.5Zm-11.6 20.2c-.4.3-1 .3-1.1.3h.5c.3 0 .6-.2.8-.5.2-.2.4-.6.4-.9 0 .5-.2.9-.6 1.1m50.3 0h.3c.2 0 .1 0 0 0h-3zM144.1 48l.2.2-.4-.4c-.7-.7-.9-1-.4-.6.2.2.2.3.7.7Zm60.5-5.9-.5-.5s.2.1.5.4c.4.3.7.7 1.1 1.1-.3-.3-.7-.6-1.1-1m-66 .5-.8-.8c0-.1.1.1.3.3.3.2.5.5.7.7 0 0 .3.4.6.7l-.9-.9ZM150 54.1c-.4-.4-.9-.8-1.2-1.2.5.5 1 1 1.6 1.5.1.1.2.3.2.3-.2-.2-.5-.4-.7-.7Zm11.6-.8v1.4-1.8zm38-17.1.5.5c.2.2 0 0 0 0-.3-.2-.6-.5-1.2-1.1.3.2.5.4.8.7ZM220.2 57q-.8-.7-1.5-1.5c.8.7.9 1 1.5 1.5m-44.1-10.5s-.2-.1-.6-.5c-.3-.3-.7-.7-.6-.7l.7.7zm24.6-8.7c.1.1.4.4.2.3l-.3-.3-1-1c.4.3.7.7 1 1Zm-13.9 18.7-.5-.5.4.4.5.5s-.2-.2-.4-.3Zm-39.2-4.9c-.3-.3-.5-.5-.5-.6 0 0 .3.2.5.4.3.3.4.4.3.4zm77.3 10.2c-.4-.3-.6-.6-.9-.9l1 1Zm-63 .8v-1.1 1.1m57.9-5.8h.1l.8.8-.9-.9Zm-78-11.1-.2-.2c-.3-.3-.4-.5-.5-.5 0 0 .1 0 .3.3zm3.5 3.6c.1.1.3.3.2.3 0 0-.3-.2-.7-.6-.1-.2.2.1.5.4Zm56.2-10.9c-.2-.2-.3-.3-.2-.3 0 0 .2.1.4.4l.3.3s-.2-.1-.5-.4m-39.6 21.3v-.8.7Zm57.5 4.1h-1.8zM154 57.9l.3.3c.2.2.1.2-.2-.1 0 0-.3-.4 0-.2Zm-.7-.5s.1 0 .3.2c.3.3.5.5.5.6l-.3-.3zm8.8-15.5v.4-1 .5Zm47.3 4.8.2.2s-.2-.1-.4-.4l-.2-.2zm-43.2-9.9c-.4-.3-.7-.7-1.2-1.2zm38.7 27.1h1.3zm-.1.2h-1.5zm15.4-7.6 1 1zM196 64.1h1q.15 0 0 0h-1.1Zm9.6 0h.2-1zm-44.1-10.6v-.7.7m-20.4-8.9.4.4.2.2-.3-.3c-.1-.1-.3-.3-.2-.3Zm.4 1.2-1.1-1.1zm11 10.8-.2-.2-.4-.4.2.2zm-9.9-9.8s0-.1 0 0c.2.1.4.4.7.7l-.6-.6Zm0-.8-.2-.2s.1 0 .3.3c.1.1.2.2.1.2 0 0-.1 0-.3-.3Zm36.1 2.6c.5.5.8.8 1.2 1.1-.3-.3-.6-.5-1.2-1.1m37.3 4.1.7.7c-.3-.3-.6-.5-.7-.7m-54-8v.3-.7.3Zm-.3 5.9v-.2.5zm24.8 6.1-.2-.2-.3-.3s.2.1.3.3l.3.3Zm-35.7-1.9-.2-.2s.1.1.3.2l.2.2-.3-.3Zm60 9.3h-.5.6Zm6.8-9.6s.1.1.3.2l.2.2s-.1 0-.3-.2zm-55-19.8c-.1 0-.3.2-.3.2l.1-.1.4-.2s-.1 0-.2.1m1.8.8.2.2s-.1 0-.2-.2l-.2-.2zm-3 23.3v.7-.7m-11.9-5.1-.3-.3.2.2.3.3s-.1-.1-.2-.1Zm70 10.5h.5-.5m-57.6-13.7v.4-.5Zm61.9 13.2h-.4.4m-1.6-5.2-.2-.2-.2-.2.3.3zm-25.3 5.2h.2-.5.4Zm-62.2-25.2-.1-.1s.2.2.3.2v.1zm82.9 15.8.1.1zl-.2-.2s.1 0 .2.2m-8.4 9.8h.4-.4m7.6-10.5.1.1-.2-.2-.3-.3c.3.3.4.3.4.4m-46.3-12.5-.1-.1.2.2.2.2zm2.8 2.7v-.1l.2.2.1.1-.2-.2ZM140.5 11.2l-1.4-1.4c-.2-.2 0 0 .6.7.5.5 1.1 1.2 1.7 1.7.4.4.7.7.9 1 .2.2.1.2-.2-.1-.7-.7-1-1-1.7-1.6l-.5-.5s.2.2.4.5l1 1c.5.4.8.8 1 1.1l.4.4c.2.2.8.8 1.2 1.1.3.3.8.8.9 1l-.6-.6-.3-.3s0 .1.2.2c.6.6 1.1 1.1 1.6 1.7l4.7 4.7.5.5c.5.6.9.9 1.1 1 .2.2.6.5 1.2 1.1l.5.5c-.2-.3.2.1.4.3s.4.3.2 0c-.1-.2-.5-.5-.7-.8-.5-.4-.7-.6-1.3-1.2.3.4 0 0-.5-.4-.9-.9-1.8-1.7-2.7-2.6l-.2-.2c0 .1-.1 0-.4-.4-.3-.3-.2-.3-.1-.2.2.2.4.3 1.2 1.1.3.3.9.9.5.4-.3-.3-.7-.7-.7-.8s.5.5.8.8c.2.1.2.2.2.1l-.5-.5-1.2-1.2c-.1-.2.2 0-.3-.5s-.6-.7-.5-.6c.3.2.7.7.9.9.3.4.6.6.9.9.9.8 1.3 1.2 2.1 2.1.2.1 1.2 1.1.3.1-.2-.2 0 0 .1 0 .3.2.3.3.4.5.4.4.8.9 1.2 1.2.6.5 1.1 1 1.6 1.6l.8.8.4.4c0-.1-1.5-1.6-1.9-2s-1-.9-1-1c-.1-.2-1-1.1-1.4-1.5l1.3 1.3c.7.7.8.8.6.5 0 0-.3-.4-.1-.2s.6.5.7.7c.4.5 1 1.1 1.6 1.6l.6.6s-.4-.3-.7-.6c-.6-.6-1.2-1.2-1.8-1.7-.2-.2-.5-.6-.6-.6s.2.2.5.5c.6.6 1.2 1.3 1.8 1.8l2 2c.3.3.6.6.8.9.3.3.5.7.9.8h.2s.4.1.8 0 .7-.5.8-.9v-2 .9-12.5.6-4.6 2-5.1V10 7.5c0 .2-.1-1.6-.2-1.2V2q0-.3 0 0v3c0-.5 0 .1.1 0V2.1c0-.2 0-.5.2-.7.1-.2.3-.3.2-.2-.3.2.1-.3.7-.3.2 0 .4 0 .6.2.2.1.3.3.5.5l1 1c-.3-.3-.7-.7-1.1-1.2l-.5-.5c.2.1.4.3.6.5l.5.5 1.1 1.1.6.6c.4.3-.4-.4-.6-.7-.3-.4.8.7 0-.1-.3-.3-.5-.5-.6-.7-.3-.3-.7-.7-1-1.1-.4-.4-1.1-.5-1.6-.3-.2 0-.3.2-.2.2l-.3.4c-.2.4-.2.5-.2.2.1-.3.4-.7.8-.8.4-.2 1.1-.1 1.6.4l.4.4s-.3-.3.1 0l.6.6c.2.3.6.6.8.9.7.6 1.6 1.5 2.4 2.3.6.6 1.4 1.3 1.9 1.9l.4.4c.1.1 0 .1.3.3l.7.7c.2.1.2 0 .2 0l-.3-.3-2.5-2.5c-.8-.8-1.2-1.2-.8-.9s-.1-.2-.6-.8c-.7-.8-1.5-1.5-2.3-2.3-.4-.4-.8-.7-1.1-1.1-.5-.5-1.3-.6-1.8-.4-.2 0-.5.2-.7.4s-.3.4-.4.6c0 .2-.1.4-.2.6v2.5-1.2V14c0 1.2 0 2.8.2 3.7v1.1-.1c0-.5 0-.3 0 0v10.4c0 .2-.2.4-.5.6h-.6c-.1 0-.2 0-.3-.2 0 0-.2-.2-.4-.3l-.7-.7c-.3-.3-.8-.7-1.1-1.1.1 0 .3.3.4.4.2.2.7.7.5.4l-.9-.9-1-1c-.5-.5-.8-.8-.3-.2.4.4.2.2-.2 0-.4-.4-.8-.8-1.3-1.2-.4-.5-.8-.8-1.1-1.1-.7-.6-1.5-1.3-2.6-2.5l-.8-.8c-.2-.2-.1-.2 0 0 .5.4.2 0-.4-.5-.4-.4-1.2-1.2-.7-.8.2.1 0-.1-.5-.6l-.7-.7-.3-.3c-.1-.2-.3-.3-.3-.3s0-.2-.5-.6c-.5-.5-.8-.8-1-.9-.2-.2.2.3.5.6.1.2.3.3.6.6-.4-.4-.5-.4-.5-.4l-.3-.3c-.3-.3-.2-.2-.2-.3 0 0-.9-1-1.2-1.3-.2-.2-.3-.3-.1 0 .9.9.6.7 1 1.2l-1.2-1.2-.5-.5c-.1 0-.7-.6-1.4-1.3l-.5-.5c-.2-.1-.5-.5-.7-.7-.4-.5-1.5-1.6-2.3-2.4-.3-.3-.7-.6-.6-.7l.6.6.6.6.8.8c.3.3.3.2 0 0-.3-.4 0 0 .4.3.3.3.6.6.5.4 0-.1-.4-.5-.7-.7-.7-.7-1.5-1.4-2.2-2.2 0 0 0-.2-.5-.6-.8-.8-1.3-1.3-1.9-2l-.8-.8c-.6-.6-1.3-1.3-2-1.9-.4-.4-.5-.5-.5-.4s-.2 0 .9 1.1c.2.3.4.5.8.8l.9.9c.2.3.7.8 1.2 1.3l1.6 1.6c-.6-.5-1-.9-1.5-1.4l-.7-.7.7.7.9.9.9.9-.9-.9-2.1-2.1c-.2-.2-.5-.6-.9-.9l-1.1-1.1c-.6-.7-1.3-1.3-2-2 0 0 .3.2.6.6l.2.2-.2-.2c-.2-.2-.2-.2 0-.1.2.2-.2-.3-.1-.2l-.7-.7c-.3-.3-.5-.5-.2-.1.6.6.2.3-.4-.3l-.4-.4c-.2-.1-.3-.2-.5-.3-.4-.1-.8 0-1.2 0-.6.3-.9.9-.9 1.4v1.7-1.7c0-.5.3-.9.5-1.1s.3-.2 0-.1l.2-.2c.1 0 .2-.1.1-.1 0 0-.2 0-.4.2s-.4.5-.5.8V2v-.7c0-.1.1-.2 0-.1 0 .2-.1.4-.1.5v4.7c0-.5 0-1.4.1-1.8v-.2 8.8-1.4 1.1q0 1.05 0 0V4.2v2-2.1.3-2.8c.2-.6.8-.9 1.3-.7.2 0 .5.3.5.3.3.2 1 1 1.4 1.3l1.4 1.4c-.2-.1-.2-.2-.3-.3-.5-.5-.6-.6-.6-.5s.5.5.7.7l1.1 1.1 1 1c.2.2.2.2.1 0s-.6-.6-.9-.9l-.5-.5c.1 0 .2.1.5.4.5.5.5.4.5.4s0-.1 1 .9c.2.2.4.3.7.7-.2-.2-.5-.4-.7-.7v.1s.2.4.7 1c.2.3.3.3.7.8.6.6 1.2 1.2 1.6 1.7.3.3.8.7 1.4 1.4Zm21.1 3.5v-.1 2.7-2.5Zm3.9-12.6c.7.7 1.3 1.3 1.8 1.7l.9.9c.2.2-.3-.2-.5-.5 0 0-.1-.1-.2-.1-.8-.7-2-1.9-3.1-3-.2-.3-.6-.5-.8-.5h-.4c-.1 0-.2 0 0 0 .1 0 .4 0 .9.2.3.2.5.5.7.7l.6.6c-.2-.2-.4-.4 0 0Zm-21.1 12.4s.2.1.6.5c.5.5.9 1 1.5 1.5l.2.2-.3-.2c-.6-.5-1.2-1.2-.3-.2.2.2-.2-.1-.3-.3l-1.9-1.9c-.3-.3-.6-.5-.9-.8-.2-.2-.4-.4-.7-.6-.3-.3 0 0 .3.2.2.2.3.2.2.2-.2-.3-.1-.2.9.8.5.5.7.7.7.6m5.7 5.6c1.1 1.1 1.6 1.7 2.5 2.6l.5.5c-.1 0-.5-.4-.7-.6-.7-.8-1.4-1.4-2.2-2.2-.7-.7-.6-.6-.4-.5.4.3.4.3 0-.2l.2.2.1.1Zm11.8-1.9s0 1.1-.1-.3v-1.8 2ZM137.4 7.1l.7.7c.1.2-.2-.2-.5-.5l-1-1-.5-.5-.9-.9c-.3-.3-.5-.5-.6-.7l.8.8c.4.4.8.9 1.3 1.3l.7.7Zm24.1 5.9V9.7 13c0-.2 0-.5 0 0m-14.2 4.5.8.8s-.4-.3-.6-.5c-.1-.1-.5-.5-.5-.6s-.5-.5-1.1-1.2c.6.6 1 1 1.5 1.4Zm-2-1.8.4.4c.3.3 0 .1.4.5-.2-.2-.5-.4-.5-.5-.8-.8-1.1-1.1-1.8-1.7 0 0 1.2 1.1 1.5 1.4Zm16.5-10.1v.2c0-.9 0-.9-.1-.5 0 .1 0 .3 0 0v-2 2.3Zm.1 2.1v.5c0 .6 0 .1 0 0V6v1.7m-28.4-3.8-.4-.4c-.4-.4-.9-.9-1-1.1 0 0 .3.2.6.6.3.3.8.8.8.9m-2-2.3-.9-.9c-.3-.2-.5-.3-.8-.4.5 0 .9.4 1.1.6l.6.6Zm9.7 9.9q-.3-.15-.6-.6c-.1-.2-.3-.3-.2-.3l.4.4 1 1c-.2-.2-.4-.4-.6-.5m20.3 8.8v-.6 1.7-1Zm.3-16.8V2.4v1.1m-.1 5.3c0-.7 0-.5-.1-1.4q0 .4.1 1.4m-.1 13.5v-.6 1.4zm-15.1-5.8s.2.1.3.2l.8.8c-.5-.4-.8-.8-1-1.1Zm-3.8-3s-.2-.2-.1-.2.2.2.7.7c-.3-.3 0 0-.6-.5m-.5-.9.4.4-.2-.2c0-.1-.4-.5-.7-.7zm19.6-2.9v1c0 .4 0 .2 0 0v-.9Zm-13.3 8.8c.4.4.7.7.9 1-.4-.4-.7-.7-.9-1m-8.9-8.5s0-.1 0 0c.2.1.5.5 1.1 1-.4-.4-.6-.6-1-.9Zm22-5.4V5v-.8zm.3-2.5v1-.9Zm0 20.6v1.6zm-.3-18.4v-.1 1.2zm-.2 19.7v.9zm0-10.2v1.8zm.5 13.6v-.7zm-1.3 2.6h-.3c-.2 0-.3-.1-.3-.1h.5Zm1.3-.9c0 .5-.3.8-.7 1 .2-.1.4-.3.5-.5s.2-.3.2-.5m-3.5-.9.7.7zM128.3 3.4v-.9zm33.3 20.5v-1.3zM163.7.6s.2 0 .4.2c0 0 .2.1.2.2 0 0-.1-.1-.3-.2-.2 0-.3-.1-.3-.1ZM139.8 10l.1.1s-.2-.1-.3-.3l-.1-.1s.1 0 .3.2Zm-11.7-2.4v-.2.6zm33.3-2.1v.6-.6m.3 1.9v-.2zv.2-.3Zm1.1-6.3q-.15 0 0 0h.4s-.2 0-.3.1Zm-1.1 9.5v.3-.4zm.5-6.1v-.2zv.3-.2Zm-.6 14.9v-.2.6zm0 6.7v-.4.5Z" class="st0"/><path d="M182.9 20.1c.2.2-.5-.5-.6-.7-.3-.3-.6-.7-1.1-1.1-.3-.2-.7-.7-1.1-1-.4-.4-.3-.4-.2-.2.3.3-.2-.3-.5-.6-.7-.6-.9-.9-1.4-1.5l-.2-.2c.5.5 0-.2 0-.3.3.3.6.6.9 1 .8.8 1.2 1.3 2.1 2.2.4.4 0 0-.3-.2-.6-.6-.5-.4.3.5.5.6 1.2 1.2 1.5 1.5.7.8 1.6 1.7 2.5 2.6l.9.9c.2.2 0 0-.3-.2-.4-.4-.5-.4-.1 0l-.2-.2-1.1-1.1-.9-.9c-.2-.2.2.3.3.4.3.4 1.2 1.2 1.6 1.7s.7.8-.2 0l-.5-.5c-.3-.3-.4-.3 0 0 .6.6 1.4 1.4 1.8 1.9 0 .1.5.5.6.6.7.7 1.6 1.5 2.1 2.2l.5.5c.1.1.2.2.2.1-.3-.4.3.2-.5-.6-.2-.2 0 0 0 0 .7.7 1.1 1.1 1.6 1.7.5.5.1.2 0 0-.2-.2 0 .1.3.4.3.4.6.6.8.8l.7.7c.3.3.4.4.4.3-.2-.4-.4-.6-2-2.2-.5-.5-.4-.4-.2-.3.3.2.5.5.7.7l.8.8c.3.3.2.1 0-.1l.2.2c.4.4.4.4.5.4 0 0-.4-.4-.5-.6l-.8-.8c-.6-.6-.7-.7-.2-.3.6.5.3.2 0 0-.3-.4-.8-.8-1.3-1.3-.6-.6-1-1-1.4-1.5-.2-.2-.5-.6-.9-.9l-1.1-1.1c-.7-.7-.9-1-1.3-1.4.3.2.5.5.7.6l.9.9-1.1-1.1s.6.6.5.4l-.3-.3c-.6-.5-1.1-1.1-1.7-1.7l-2.2-2.2c.1.1.1 0-.2-.3l-1.2-1.2-.6-.6.6.6c.3.3 1.5 1.5.7.6l.2.2q.15.15 0 0c-.4-.4-.8-.9-1.2-1.1-.6-.5-.9-.8-1.4-1.4-.4-.4-.8-.8-1.4-1.5-.6-.6-1.4-1.3-1.7-1.8l-1.6-1.6c-.3-.2-.7-.6-1.1-1.1-.5-.5-.7-.7-.5-.4.3.3.7.7 1.5 1.6.4.4.8.8.9 1 .2.2-.3-.3-.6-.5-.1-.1-.3-.3-.5-.4-.6-.6-.7-.6-.5-.3.3.3.6.5.7.7.6.5 1 1.1 1.6 1.7l.4.4c.1.2.2.3 0 .3l-1.1-1.1-.6-.6c-.3-.3-.6-.6-.3-.2.2.3-.2-.1 0 .2.1.1-.2-.2-.4-.3l-.5-.5c-.2-.2-.7-.8-.6-.7l-.4-.4c-.4-.5-.4-.4-.6-.5l.2.2c.6.6.9.9.8.9l-1.3-1.3c-.3-.3-.6-.6-.6-.5 0 0 .4.4 0 0L169.7 8q-.6-.75-1.5-1.5s.5.5.5.6c-.1 0-.3-.2-.4-.4l-.8-.8.1.2c.3.3.6.7.9 1 .4.4.8.7 1.2 1.1l.9.9c.9.9 1.8 1.7 3 2.9-.2-.1-.5-.5-.2 0l.7.7c.3.2.8.7.9.9.2.1.2 0-.1-.2-.4-.4-.1-.2.5.4l1.8 1.8.9.9c0 .1 0 0-.2-.1-.7-.7-1.2-1.1-2-2-.2-.2-.4-.5-.6-.6v.1c.3.4.6.7 1.2 1.3l.9.9c.7.7 1.5 1.5 2.1 2l.5.5c.6.7 1.7 1.7 2.3 2.3Zm4.5 4.5-.8-.8c-.1-.2.3.2.6.5.2.1.3.3.4.4.3.4.6.7 1 1-.2 0-.4-.3-1.2-1Zm1.6 1.7c.2.2.3.3.2.3l-1-1c.1 0 .4.3.8.7m2.5 2.9s-.2-.2-.3-.2c0 0-.2-.2-.1-.2l.1.1zm-4.3-4.5s-.1 0-.2-.2l-.2-.2s.1 0 .2.2c0 0 0 .1.1.2ZM128.8 16.1v-1.8c0-.9 0-.8-.1.4v.5-1.9c0 .3 0 .1 0 0V11v8c0 .3 0 .1 0 0v-.3 5.9-1.3 1.3-8.7V17v-.7Zm-.1 6.2V21v1.4Zm0-4v-.5.5" class="st0"/><path d="M128.1 30.9v1.5l.2.2c.2.1.3.3.4.4l1.5 1.5c.6.6.6.5.3.2-.5-.6-.3-.4-.2-.3-.5-.6-.4-.5-.6-.7s-.4-.5-1.1-1.2l-.2-.2v-1c0-.3.1-.6.2.3 0 .2 0 .5 0 0v-5.7 3c0 .3 0 .6 0 0v-7 10.3l.6.6.4.4-.4-.4-.6-.6v-1.8.4Zm.2-4.1v-.4 1zm-.1 4.4V30zM187 23.7l1.1 1.1c0 .2.7.7.9 1l1.3 1.3s.3.4.8.8l.6.6c.3.3-.2-.3-.3-.3 0 0-.1-.2 0 0l.5.5c.3.3.6.7.6.7l.2.2.4.4s.3.2.6.5c.7.7 1.2 1.1 1.8 1.8 0-.1-.5-.6-1-1-.6-.6-1-1-1.2-1.3-.3-.3-.7-.8-1.2-1.3l-1.8-1.8.3.3.5.5-.5-.5-1-1c-.2-.2-.5-.6-.7-.7-.2-.2.4.4.3.4l-1.8-1.8c.2.1.9.8 1 .9-.4-.5-1.6-1.6-1.1-1.2l-.6-.6-.4-.4s-.2-.2 0 .1.2.2 0 0c-.6-.6-.2-.2 0 .1.4.5.9 1 .5.6Zm5.3 5.3c-.8-.8-1.1-1-1.8-1.8.4.3.9.8 1.8 1.8M128 25.2v-4.9 2.9-.9c0-1 0-.6-.1-.9v5.5-.3 2.2-.3c0-.4 0-.5 0 0 0 .6 0 .5 0 0v-3.1Zm-.1-2.3v-.4.9zM162.5 16.5V14v1.5-1.2.9-4.1 9.5-4.4q0-.3 0 0V15v4.1c0-.5.1-2 .1-2.7Zm-.4 1.3v.8-.9ZM128.1 17.5v2.9-6.9.3c0 .4.1 1.4.2 1.7v5.4-3.2 1.4-1.6ZM170.6 40.6l-.6-.6-1.3-1.3c-.7-.7-1.4-1.3-2-2l-1.1-1.1c-.1 0-.7-.7-1.1-1.1-.2-.2-.3-.2 0 0 .4.3.5.4.6.5 0 0 .6.6.4.3-.2-.2-.4-.5-.9-.9-.2-.2-.4-.3-.6-.4-.2 0-.4 0-.5-.1h.3c.2 0 .4.1.6.2.1 0 .2.1.3.2l.2.2 2.7 2.7.8.8v.1c.2.3.5.5.7.7.5.4 1.1 1 1.7 1.6l1.6 1.6c.4.4 0 0-.4-.2-.4-.3-1.1-1-1.4-1.4ZM162.3 2.6c0-.4 0-.6.1-.8.2-.3.4-.4.5-.4l-.1.1s-.1.2 0 0c.3-.2.5-.2.7 0 0 0 .2 0 .3.2l.2.2s.1.2.2.2c.9 1 1.4 1.4 1.4 1.3 0 0-.2-.3 0 0 .2.2.3.2 0-.1-.3-.4-.8-.8-1.2-1.3l-.5-.5c-.1-.1-.3-.2-.5-.2-.5-.1-1 .2-1.2.6v.7Zm2.5-.2s.1 0 .3.3l.2.2-.3-.3z" class="st0"/><path d="M128.8 28.1v4l.2.2c.3.3 0 .1.1.2.2.2.1.2 0 0 0 0-.2-.1-.3-.2 0 0-.1 0-.2-.1s0-.4 0-.6v-5.7 2.2ZM169.1 6.8c0-.1 0 0 .5.4.4.4.6.6.7.8.2.3.5.6 1.1 1.2.2.2.4.4.5.6.1.1.2.2 0 .1l-.3-.3c-.9-1-2-2-2.9-3-.3-.3-.4-.4-.7-.6-.4-.3-.8-.7-1.1-1.1-.4-.4-.2-.3 0-.1l.2.2c-.6-.6 0 0 .2.1.1.1.1 0 .5.4.3.3.5.5.5.6l-.2-.1c-.1-.1-.4-.3 0 0l.8.8c.3.3.2.2.2.1ZM179.7 17.2s-.4-.3-1.5-1.3c-.3-.3-.6-.6-.8-.7l-.7-.7c-.3-.4-.4-.5-.2-.3.4.4.9.7 1.8 1.6l.5.5c.5.5.9.8.9.9 0 0 .2.3.4.5l.4.4-.6-.6s-.1-.2-.2-.2ZM155.2 58.7l-.8-.8s-.6-.5-.9-.8c-.9-.8-1.8-1.8-2.7-2.7l-.4-.4q.15 0 .9.9l2.9 2.9c.4.4.7.7.9 1ZM128.7 6.3V6c0-.7 0-1.5-.1-2.2V2.3c0-.4 0-.7.3-1.1.2-.2.4-.3.4-.3s-.1 0-.3.2-.3.4-.4.7v4.6ZM189.7 26l-.6-.6c-.3-.3-.9-.9-1.4-1.3-.5-.5-.4-.5-.2-.3.1 0 0-.2.8.8l.7.7c.7.6 1.3 1.4 1.2 1.3 0 0-.3-.3-.7-.6ZM128.4 6.5V5.4v3.8-2.5ZM127.9 13.8V11v2.9ZM172.8 9.3s.3.3 0 0-.5-.5-.7-.8c-.2-.2-.4-.4-.2-.3l-.3-.3-.2-.2.3.3c.6.6 1.2 1.3 1.2 1.3ZM162.3 2.6v-.4c0-.2 0-.4.2-.5v3.1-2.1ZM130.6 34.2c-.3-.2-.2 0-.8-.7-.4-.4-.8-.8-.6-.7s.6.5 1.1 1c.4.4.4.5.4.4ZM183 53.5s.2.3-.5-.3-1.2-1.2-1.7-1.7c-.2-.2 0 0 .3.2.7.6 1.3 1.2 1.9 1.8M151.5 22.1c.4.4.5.5.5.6 0 0-.7-.6-1.1-1.1l-.6-.6s.6.5 1.2 1.1M170.5 41.5c.4.4.9.9.8.9 0 0-.6-.5-1-.9s-1.1-1.1-1-1.1c0 0 .8.8 1.2 1.1M166.5 2.9c.2.1.5.5.9.9l1.7 1.7c.2.2.3.4.3.4s-.3-.2-.4-.4L166.5 3ZM153.1 22.6c-.5-.5-.3-.2-1.3-1.2-.3-.3-.5-.6-.3-.4.4.3 1 .9 1.7 1.6ZM163.1.3c.4 0 .9 0 1.2.3.2 0 .3.2.4.3V1l-.2-.2c-.2-.1-.4-.3-.7-.4-.4-.2-1.1 0-1.5.2-.4.3-.7.6-.7.7 0 0 0-.2.4-.5.3-.3.8-.5 1.1-.5M158.6 62l.7.7.3.3.2.2s.1.1.2.1l-.3-.2c-.4-.4-1.3-1.4-1.4-1.5l.3.3ZM154.4 25.4s.1 0 .5.4c.5.5.8.9.9 1l-.6-.6c-.4-.4-.7-.7-.7-.8ZM162.1 24.2v3.1c0 .2 0 0 0 0v-3ZM131.2 35.6c-.6-.6-1.1-1-1.4-1.4-.4-.4 0 0 0 0l.2.2.3.3s.5.5.9 1ZM214.2 50.5l-1-1s.2.2.6.5c.5.5.7.8.9 1 .1.1-.2-.2-.5-.4ZM198.1 35.5l-.6-.6.5.4.8.8c0 .1-.5-.5-.6-.5ZM162.2 36.1v-.6c0-.1.1-.2.1-.2v1.4-.7ZM149.9 54.2c.3.3.7.7.7.8 0 0-.2-.2-.5-.4-.4-.4-.9-.9-.9-1 0 0 .4.4.7.6M167 4.1l.9.9c.3.3.4.4.3.4 0 0-.3-.2-.6-.6-.4-.4-.4-.4-.6-.7M131.7 35.3c.3.3.5.6.5.5 0 0-.1 0-.6-.6-.2-.2-.5-.5-.4-.5 0 0 .2.2.6.5ZM193.8 31.1c.4.4.5.5.5.6 0 0-.1 0-.4-.3-.4-.4-.4-.5-.4-.5l.3.3ZM154.4 25.1l1.4 1.4c.1.1 0 .1-.1 0-.5-.5-.9-.9-1.3-1.4M157.3 28.2s.2.1.5.4c.2.2.6.6.5.6 0 0-.3-.2-.6-.5s-.4-.4-.4-.5M162.2 62.6V62v.8c0 .4-.4.9-.4.8 0 0 .3-.4.3-1ZM170.5 7.3c.1.1.3.3.3.4 0 0-.1 0-.3-.3l-.5-.5c-.2-.2 0-.1.1 0zM161.4 55.2v1-1.3.4ZM165.8 2l.7.7s-.4-.3-.6-.6c-.3-.3-.5-.6-.5-.6l.5.5ZM215.6 52l.7.7.6.6-.6-.6-.8-.8ZM134.8 4.8s-.2-.1-.4-.4l-.5-.5s.3.2.5.5c.3.3.5.5.4.5ZM170.8 8c-.2-.2-.6-.6-.5-.6 0 0 .1 0 .4.4.3.3.6.7.6.6 0 0-.1 0-.4-.4ZM128.3 10.6v.1-1.2 1.1M152.8 57.1c-.7-.6-.8-.8-1-.9-.3-.4-.2-.3 0-.1l1.1 1.1ZM150.2 53.6c-.1 0-.3-.3-.6-.6-.2-.2-.3-.3-.2-.3l.5.5.4.4ZM162.3 47.6v.7-1.1.3Z" class="st0"/><path d="M130.6 35.1s-.2-.1-.4-.4c-.3-.3-.5-.5-.5-.6l.4.4.5.5ZM144.2 13.7l.4.4s-.1 0-.4-.4c-.3-.3-.4-.4-.4-.5l.4.4ZM132.7 2.8l-.2-.2c.1 0 .3.2.7.7l.2.2zM147.8 51.2c.2.2.3.4.3.4s-.3-.3-.6-.5c-.2-.2-.3-.3-.2-.3 0 0 .2.2.5.4M201.9 63.5h1.4zM175.3 12.1l.2.2c.2.2.4.4.4.5l-.3-.3c-.2-.2-.3-.4-.4-.4ZM193.6 30.9l.3.2.4.4-.3-.2zM150.3 20.1c-.2-.2-.5-.5-.5-.6 0 0 .2.1.3.3l.5.5s-.2-.1-.3-.3ZM128.8 8.6v-.9 1ZM158.7 29l-.4-.4s.1 0 .3.2l.4.4s-.1-.1-.3-.2M162.1 22.6v-.4.9zM168.6 5.6c.2.2.3.3.2.3 0 0-.1 0-.3-.3l-.3-.3s.1 0 .4.3M128.3 13.4v-1.6zM128.6 6.7v-.4 1.1-.6ZM175.8 13.2l.4.4c.2.2.2.3.2.2l-.4-.4zM154.1 23.7c.2.1.3.2.6.5 0 0 .2.2.1.2zM190.4 26.8l.4.4.2.2s-.2-.2-.4-.3c-.2-.2-.2-.3-.3-.3ZM157 27.4c-.2-.2-.4-.4-.3-.4l.5.5.3.3-.4-.4ZM202.7 39.1l.2.2-.3-.3-.2-.2s.1 0 .3.3M129.8.9h.3c.1 0 .3.2.3.2l-.2-.1c-.1 0-.3 0-.3-.1ZM134.9 39.5c-.1 0-.3-.2-.5-.5-.1-.1-.2-.2 0-.1 0 0 .2.2.5.4l.1.1ZM136.5 7.4s.3.2.5.5c.2.2.2.3.2.2l-.4-.4c-.2-.2-.3-.3-.2-.3ZM182.8 20.1l.6.6-.7-.7ZM161.4 45.6v-.3.7zM189.1 26s.3.2.4.4l.3.3-.4-.4zM157.2 27.4l.2.2.2.2-.2-.2c-.2-.2-.2-.2-.2-.3ZM161.3 30.3c.2 0 .3-.2.4-.2 0 0-.1.2-.4.3-.2 0-.4.1-.4.1s.2 0 .4-.2M214.7 51.1c.1.1.2.2.2.3l-.2-.1-.3-.3.2.2ZM141.9 11.7l.2.2.2.2s-.1-.1-.3-.2l-.2-.2ZM135.4 5.4l.2.2.2.2s-.1 0-.3-.3zM189.2 25.6c.1.1.2.2.2.3l-.2-.1-.2-.2.2.1ZM162.2 57.6v.3zv-.3zM200.6 63.4h-.4.4M172.4 9.1c-.2-.2-.2-.2-.1-.2l.2.2.1.1-.2-.2ZM143.3 13.3l-.1-.2s.2.1.3.2l.1.1-.2-.2ZM128.3 8.4V8v.5ZM172 9.1l.1.1.2.2-.1-.1zM133.2 4.3l-.2-.2zs0 .1.1.2l-.2-.2ZM173.3 11.1l.2.2-.1-.1-.2-.2ZM161.7 35.4c0-.1.1-.3.1-.3v.6-.3ZM165.5 2.1l.5.5-.4-.4Z" class="st0"/><rect width="10.8" height="12.4" x="89.3" y="51.5" class="st0" rx="1.9" ry="1.9"/><path d="M96.1 64.2H96c-.1 0 0 0-.1-.1h2.6s.1-.1.3-.1h.3l.1-.1s-.1.2 0 .2c0 0 .1 0 0 0 0 0-.2.1-.3.1H98c-.3 0-.3 0-.3.1h-.3 1.1l.2-.2h.3-.1.2c.1 0 .2 0 .2-.1l.1-.1s-.2.1-.3 0h.1s.1 0 .1-.1v-.2h-.1s.1-.1 0-.1c0 0 0-.1.1-.2V63c-.1.2-.3.3-.4.3 0 0 0-.1.1-.1l-.1.1h-.8s-.1 0 0 0h-1 .8-2.5.2-2.2.3-1.5c-.1 0-.5 0-.7-.1h-.3v.1h.2-.4c-.1 0-.2 0-.2-.1-.1 0-.3-.1-.4-.2 0 0-.2-.1-.3-.2 0 0-.1 0-.2-.1 0 0-.2-.2-.1-.2v-1s0-.2 0 0v-.9.6V57c0 .1 0 0 0 0v-1.6c0-.1-.1-.2-.1-.4v.3q0-.15 0 0v.3c0-.1 0-.3-.1-.3v-1 .2-.3h.2v-1s.1-.1.2-.1.1 0 .3-.1h.3s.2-.1.3-.2c.2 0 .2 0 0-.1 0 0-.1-.1-.3-.1h-.4s.1 0 0 0H90s.2 0 .3-.1c-.2 0-.4.2-.6.3h-.1c-.1 0-.3.2-.4.3v.2c-.1.3-.3.6-.3.9v.7-.1 1-.4 1.1s0-.1 0 0v.3-.4.5s0 .1 0 0v.4c0-.1 0 0 0 0v1.6-.2.6-.2s0 .3-.1.3v2.3s0 .1 0 0v.3c0-.1 0-.2 0 0v.4c0 .1 0 0 0 0v1.1s0 .1.1.1v-.4c0 .1 0 .3.2.4 0 .1 0 .2.1.3.1 0 .2 0 .5.2 0 0 .1 0 .2.1h.1s.2 0 .2.1h-.4l.4.2h1.4-.5 1.6s.1 0 0 0h1.1s.1 0 0 0h-.2 1.1Zm-2.2-.5h-.2Zm-4.4-4.5s0-.1 0 0v-.6.6m-.4-3.6v.4-.4m4.8 8.3h-.2.4-.1Zm-4.8-3.1v-1.2.4-.1.4-.2.6-.2.6zm.3-3.7v.3-.2.4-.6.2Zm-.4 1.6v-.2.4c0 .2-.1.1-.2 0 0 0 .1-.2.1-.3Zm.2.1v.4-.4m0 3.8c0 .2.2.4.3.6l-.1-.1-.1-.1c0-.1-.1-.3-.2-.5l.1.2Zm.1-6v.2zv-.1s0-.2 0 0v.2Zm2.3 7.2h-.3zc-.1 0 0 0 0 0h.2zm-2.5-6.6v.2c0-.1 0 0 0 0v-.3q0 .15 0 0ZM94 64h.1-.4.5Zm-4.6-3.7s0 .1-.1.1v-.2Zm3.6 3.4h.2-.5.1Zm-4-6.9v-.4.4m1.6 7.2c-.2 0-.3 0-.4-.2.3 0 .3 0 .4.2m1.2 0s.1 0 0 0h-.2.4-.4Zm5.6-.3h.1zh-.2zm-7.9-1.3v-.2.1Zm9 1.3h-.1Zm-4.5.2h.2-.3Zm-4.2-.6.2.1h-.1Zm5.3.4h.1-.2zm-5.8-6.1v.3zm8.7 6.3c.1 0 .2 0 0 0h-.1Zm-8.7-12s0 .1-.2.2c0 0 0-.1.1-.2ZM99 63.8h.1zh-.1zm-2 0h.2-.3zm-3.3.4h.2zm-3.1-12.3h.2Zm-1.5 2.9v-.3zm.4 8.1v.1Zm.7-11.2h.2zM89 55.6v-.2zm0-.8v.1-.2Zm8.8 9.1h.1Zm-8.7-7.3v.2zm3.2 7.1h-.1Zm-1.5.3h.2zm-1.6-5.6v-.1.2Zm.2.1v.2zm0-3.8v.2zm0 4.9v-.1zm.1-1.2v.1zm8.9 5.3h.2zm-.1 0h-.1ZM89 62.6v-.2zm.2-8.5v.1zM100.4 56.4v.2l.1-.1V56v.3-.8.1-1.5s0-.1 0 0v.8-.2s0-.2 0 0v.1-.1.2s0 .1 0 0v-.8s0-.2-.1 0v-.6.5s0 .2-.1.3v-.8.5-1.4l-.2-.2c0-.1-.2-.2-.3-.3-.1 0-.3-.1-.4-.2h-.5.1-.5.2-.3s-.2.1-.2.2h-.4c-.1 0 0 0 0 0h.3V52h-1 .2-.5.1s-.1 0 0 0h.5H96v.1h2-.1s-.1 0 0 0h1.7v.1s.1 0 .2.1v1s0 .1 0 0v.4c0 .1.1.2.1.4v.6-.2.2-.2 1-.3s0-.1 0 0v1.3s.1 0 .1-.2v-.8.4-.5 1.3-.1.1c0-.1 0 0 0 0v.6-.3.7s0-.2.1-.2v1.2-.9q0 .15 0 0v.1-1.1s0 .1 0 0v-.5.2q0 .15 0 0v-.3.1s.1 0 .2-.1v-.6Zm-3.9-4.5H96zh.1-.2Zm3.4 3.9v-.3s0 .2 0 0zv.2-.2m0-1v-.5s0-.1 0 0v.5q0 .15 0 0m-.9-3s0 .1 0 0h-.1zm.6 5.3V57v.5-.4m-1.2-5.2h-.2.3Zm1.7 3.4v-.1.2-.3Zm0 .3v.3s0-.2-.1-.3Zm-2.6-4c-.1 0-.1 0 0 .1h-.1.3Zm.3-.1h-.3.1Zm2.3 6.2v.2-.3Zm-.1.4v.3zm.1-1.8v.1-.2Zm-1-4.1h.1zm-1.2-.4-.2.1zm1.9 3.6v-.1.2Zm.6.6v-.1Zm-.2.1v.1ZM98 51.7h.1zm1.9 3.4v-.2zm.2 1.5v-.2zm-.6-4.5v.2zm-2.2-.3h.2-.1Zm1.1.3h.2zm1.5.6v.1zm-.1.6v.1Zm.3 5.5v-.1zm-.7-6.4h-.1zM93.4 51.4h.8v.2h-.6c.1 0 0 0 0 0h-.9.4-.3s-.1 0 0 0h-1.3c0 .1 0 .1.4.1h-.2.1q.15 0 0 0h1.1-.3.2s-.1 0 0 0h1-.2 1.6s.1 0 0 0h-.5c.1 0 .1 0 0-.1h-.4v-.1h.3s.1 0 0 0h.1-.2.2s.1 0 0 0h.5-.1.1-1.9.5-1.2Zm-.8 0h.1-.2s0-.1.2-.1Zm-.3-.1h.2-.1ZM100.6 60.4v-.2c0-.1 0 0-.1 0v-.1s0-.2 0 0v-.2 1.7-.1.1-.9.1Zm-.1.8v-.1.2ZM99.9 62.2v.4h.1l.1-.2v-.2h.1v-.8.4-.7s0-.2 0 0v1-.3Zm.1.1v-.1zM92.7 51.7h-1.2H93h-.2.3c.1 0 0 0 0 0s-.2 0 0 0Zm-1 .1h.3zM99.8 61.5v-.6.3s0-.1 0 0c0-.1 0 0-.1-.1v.7-.4ZM99 51.1h-.3c-.1 0 0 0 0 0s.1 0 .2.1c.1 0 0 0 0 .1h-.6.4c.2 0 .4 0 .6.2 0-.1-.2-.3-.4-.3v-.1s-.1 0 0 0zc.2 0 .3.1.5.2l-.3-.3Zm.1.4H99ZM99.9 60.5v.3-.8s.1.2.2.2v.7-.3.1-.1Z" class="st0"/><path d="m89.9 63.9.2.2c.1 0 .3 0 .4.1h.4-.1s-.1 0 0 0h.3-1c-.1 0-.2 0-.4-.1-.1 0-.2-.1-.3-.2h.1s.2.1.3.2ZM97.1 51.1H97q-.15 0 0 0h-.5.7ZM100.6 61.9v.7c-.1 0 0-.1 0-.2v-.7zv.1ZM95.8 51.1h-.3.8c.1 0 0 0 0 0h-.1ZM93.9 51.2h.4s-.1.1-.3.1h-.2.1ZM96.1 64.2h.8-.9ZM100.5 59.2l-.1-.3v-.4.5ZM92.2 52h.3-.4zM100.2 59.2v.4-.3ZM99.7 60.1v-.3.3M95.2 51.9h.1c-.1 0-.2 0-.2-.1ZM97.1 51.1h-.2.3-.2ZM100.2 62.8v-.3.2ZM89.4 61.7v.3zM100.4 54.5v-.1.3zM90.3 63.3s-.1 0 0 0h.1s.1 0 .1.1h-.2ZM96.3 52h-.5.4ZM99.6 54.3v.2-.3ZM96.8 52.1h-.2.3-.2ZM95.5 64.3h-.3zM100.6 53.9v-.2.2M99.8 52.1s.1.2.2.2v.1l-.1-.1s0-.2-.1-.2M99.6 62.7v-.2h-.1ZM89.6 53.7v-.2zM90.6 51.3h.1-.2zM91.6 63.6h-.1zM97 63.7h-.1.2zM96.2 51.5H96c-.1 0 0 0 0 0h.2M100.1 63v-.1zM100.4 54v-.3.2ZM100.5 53.4v-.1zM94.9 63.6h-.1ZM94 64.4h.1zM96.5 52.1h-.1zh.1ZM89.4 53.9v.2-.2M95.5 51.5s.1 0 0 0h-.1ZM96.5 63.6h.2zM97 64.3h.1ZM99.9 57.8v.1ZM88.8 58.8v-.2zM100.1 60v-.2zM99.6 54.1V54zM93.4 51.4h-.1zM58.2 61.5 29.8 33.1l-.2-.2c-.1-.2-.2-.5-.2-.7s.1-.7.4-.9L58.4 2.7c.8-.8.2-2.2-.9-2.2H28.9L2.4 27.1c-2.8 2.8-2.8 7.5 0 10.3l26.5 26.5h28.3c1.3 0 1.9-1.5 1-2.4" class="st0"/><path d="M19.8 10.1c.3-.4 0 0-.3.3l-.5.5c-.1 0 0-.1.2-.3.1-.1.2-.2 0-.1-.6.5-.2 0-.6.4-.2.2.3-.3.2-.3l.6-.6q.3-.3 0 0c-.1.2 0 0 .2-.1l.9-.9.9-.9c.4-.3.7-.7 1-1 0 0-.2.1-.3.2l.4-.4c.1-.1 0 0-.1.2.6-.6.8-.7 1-1 .2-.2.4-.5.6-.7.5-.4 1.1-1 1.6-1.5.2-.2.2-.2.1-.2 0 0-.1.1 0-.1l.3-.3c.2 0 .7-.6 1-1l.3-.3.8-.8s.2-.2.2-.3l.1-.2s0-.1.2-.1h3.8-.1c-.2 0-1 0-.6.1h-.9.8-1.8s.4 0 0 0h-1.2l-.2.2L27 2.3c-1 1-1.2 1.3-1 1.2 0 0 0 .2-.4.6s-.6.6-.7.8c0 0 0 .1.2-.1.7-.7 1.4-1.4 2-2.1l1.1-1.1.4-.4h.1V1h3-1 3-1.3 1.4c.3 0 .7 0 1-.1h-1.3 3.4c1.1 0 .3 0 .4-.1h-1.5.3-3.7 1.7-1.8c.1 0 0-.1-1.1-.1h-.6.2s.2 0 0 0H28l-.1.1-.1.1c0 .1-.4.4-.7.8-.3.3-.6.6-.4.3l-.2.1-1.2 1.2c-.3.3-.7.8-1.1 1.2-.3.3-.4.3-.6.5 0 0-.2.1-.2.2l-.6.6c-.2.2-.1.2.1 0l.8-.8 2.4-2.3-1.8 1.8-1.8 1.8-.1.1-2.8 2.8c-.4.4-.8.8-1.1 1-.5.4-.7.6-1.3 1.3-.2.2-.3.4-.6.6l-.3.3v-.1l.6-.6c-.5.4-.5.4-.8.7-.1.1-.3.2-.4.4-.3.3-1 .9-1.1 1.1-.3.3.1 0 .4-.3 0 0 .2-.2.2-.1-.2.2-.7.8-1.2 1.4-.7.7-1.2 1.2-1.5 1.6-.1.2-.5.6-.8.9s-.2.1-.3.2l.2-.2c-.9.9-1.8 1.9-2.8 2.8.5-.5.6-.7 1.1-1.2.1-.1.2-.2.2-.3l-.2.2c-.8.8-1.5 1.6-2.3 2.4l-.2.2c-.2.2-.3.4-.5.5l-.3.3c-.2.2-.7.8-.8.8-.5.5-.9 1-1.4 1.4-.5.5-.5.5-.7.8l-.2.2-.2.2c-.3.2-.8.6-1.2 1.1l-.7.7c-.2.3-.4.5-.6.8-.1.2-.3.4-.4.6 0 .1-.2.3-.2.5-.1.4-.3.9-.3 1.2 0 .4 0 .2.2-.5 0-.3.2-.6.3-.7 0 0-.2.6-.1.4 0 0 .1-.3.2-.5.1-.4.3-.7.3-.7s-.1.3-.2.5c0 .2-.1.3-.2.5 0 .2-.1.3-.2.5-.1.3-.1.6-.2.7v-.4c-.2.7-.2 1.1-.3 1.3v.4c0 1 0 1.9.4 2.8.1.3.3.7.4 1 .2.3.3.6.5.8.1.1.2.3.4.4.1.2.3.3.5.5l.3.3s-.2-.3.2.1 1 .9 1 1.1c0 .1 0 .2.4.6l.2.2c.2.2.2.2.2.1l.2.1c.1.1 0 .1 0 .1s.2.3.5.5l.5.5c.7.7.8.8.6.5h.2c.4.5.9 1 .9.9l.5.5.4.4.4.4c.1.2.7.7.2.3 0 0 0 .1.2.3.3.3.9.8.9.8s0-.1.2.1c.8.9 1.7 1.8 2.6 2.5-.3-.2-.7-.6-1.2-1.1l-1.1-1.1c.6.7 1.3 1.4 2 2.1l.7.7c.2.2.2.3 0 .2-.2-.2 0 .2.5.7l1.1 1.1c.2.2.5.4.4.4s.2.2.3.3c.7.6 1.3 1.3 2 1.9l.3.3c.6.6 1.1 1 1.6 1.5.3.3.6.6 1 .9l1.1 1.1.4.4.7.7c.2.3.5.6.6.5l.3.3c0 .1.3.3.3.3.1 0 .5.4.9.8.2.2 0-.2.3.2 0 0 .1.2.2.3 0 0 0 .1.1.2 0 0 .2.2.3.4.5.4 1 1 1.5 1.4.2.2.3.3.3.4H27l-.2-.2.4.4c.2.2.4.3.6.5.1.2.5.5.6.6 0 0 .1.2.3.4h1.1-.1H39c.6 0 1.2-.1 2.2-.1h.1-4.5s-.1 0 0 0c.7 0 1.4 0 1.8-.1 0 0-.3 0 0 0h5.8-1.6H45h-.2c-.5 0 0 .1.4.2h.5c.8 0 2.1 0 3.2-.1 1 0 1.8 0 2.1-.1h2c.4 0 .5.1 1.8 0h.4-.3 2.6c.3-.1.6-.4.8-.7q.3-.6.3-1.2c-.2-.7-.5-.9-.5-.9s.1.1.2.4c0 .3.1.5 0 .7 0 .2-.1.5-.4.8-.2.2-.4.3-.4.3-.4.2-.5 0-1.5 0h.4-1.8 2.2-14.2.6-7.3 2.6-6.4.3-2 2.9-2.1s.4 0 0 0h-1.1c-.3 0-.6 0 0 0 .5 0 .4 0 0 0h-1.2l-.5-.5c.5.4.3.2 0 0l-.8-.8c-.5-.4-.9-.8-1.3-1.2-.3-.3-.4-.4-.6-.5s.2.3.3.3c-.3-.3-.3-.2-.4-.4l-.7-.7-.3-.3-.6-.6v-.1c-.4-.4-.5-.4-.6-.5l-1.1-1.1c-.2-.2-.4-.4-.4-.3 0 0-.2-.2-.5-.4-.3-.3 0-.1-.1-.2v-.1s-.2-.3-.1-.2c.1 0 .3.2.4.4l.3.3c.2.2.5.5.5.4l-.5-.5c-.8-.8-1.3-1.2-2.1-2 .1.2.4.5.6.7 0 0 0 .1 0 0l-.2-.2c-.3-.4-1.2-1.3-1.1-1.3l-.2-.2c-.5-.5-.9-.9-1.3-1.4-.4-.3-.5-.5-.7-.7q-.45-.6-1.2-1.2l-.6-.6c-.6-.5-1.1-1.1-1.6-1.6 0-.1-.2-.3-.4-.4l-1.7-1.7-.4-.4s.3.2.1 0-.4-.5-.7-.7c-.3-.3-.4-.4-.2-.1.4.4.2.3-.4-.2l-.6-.6c-.3-.4-.7-.7-.7-.6l-.2-.2c-.1-.1-.1-.2 0-.1.2.1.3.2.5.4.1 0 .2.2 0-.1l-.5-.5s-.9-.8-1.1-1.1c-.3-.4 0 0 .1 0 0 0 .3.3.1 0s-.3-.3-.5-.4c-.2-.2-.6-.5-.9-.8-.4-.5-.9-1-1.4-1.5l-.6-.6-.5-.5.5.5c.5.5.7.7.4.5-.1 0 0 .1.1.2-.4-.5-.8-.9-1.2-1.3-.5-.5-.6-.7-.9-1-.2 0-.7-.5-1.3-1.7-.2-.3-.3-.6-.4-.9 0-.2-.2-.5-.2-.7v-2.2 1.4c0 .2.1.8.1.6 0-.3-.1-1.1 0-1.7V31c.1-.8.2-.9.2-1.2 0 0 0-.2.1-.4 0-.1 0 0 0 0 0 .1 0 .2 0 0l.3-.6c.1-.3.4-.7.6-1 .3-.3.6-.7.9-1l.4-.4c.2-.2 0 0 0 .1-.2.3 0 0 .3-.3.4-.4.8-.8 1.2-1.1-.2.2-.8.8-.8.9 0 0-.1.2-.3.4l-.6.6c-.4.4-.4.5-.5.6l.3-.3c.3-.3.4-.4.6-.5.3-.2.6-.6.7-.7l.1-.2.2-.2c.2-.1.7-.6 1.3-1.2.3-.3.5-.5.4-.5l.4-.4.4-.4s-.1 0-.3.3c-.1.1-.3.2-.3.2s.1-.2.3-.3c.3-.3.7-.7.5-.6l.1-.1c.5-.5.7-.8 1.2-1.3l.7-.7c.2-.2.6-.5.4-.3-.1.2 0 .2.3-.2l1.1-1.1c0-.2.4-.4.6-.6s.5-.4.6-.6c.5-.5.4-.4.5-.4 0 0 .2 0 .5-.4.4-.4 1.2-1.1 1-1.1 0 0 .5-.6.2-.3l-.9.9c-.1.1-.2.2-.3.2 0 0 .1-.2.3-.3l.2-.2h-.1v-.1l.4-.4.4-.4c.1-.1.3-.3.3-.4l.5-.5c.1-.1 0 0 .3-.2.1-.1.3-.4.2-.3 0 0-.2.2 0 0 .2-.1.5-.5.7-.7.5-.4 1.1-1.1 1.6-1.5.1-.1.4-.4.6-.5.3-.3.6-.6.8-.9Zm-8.5 7.8c-.2.2 0 0 .2-.1-.3.3-.7.7-.9.8-.1.1.2-.2.3-.4l-.2.2.1-.1c0-.1.1-.1.3-.4Zm6.6 35.3c-.2-.2.6.5-.1-.3l1.2 1.2 1.3 1.3c-.7-.6-1.1-1.1-1.3-1.3l-1-1Zm15.2 10.6h-.6.3H31h2.2-.4.2ZM11.2 18.3c0 .1-.2.2 0 0s.2-.2.2-.1l-.4.4-.5.5c-.1 0-.2.1-.3.1 0 0 .4-.5 1-1.1.2-.2.3-.4.5-.5l-.5.5-.1.2Zm.7 28.4c.2.2.4.4.6.7l.3.3s-.1-.1-.2-.3c-.1-.1-.3-.3-.2-.3 0 0 .2.2.4.3.8.9 1.6 1.6 2.3 2.2 0 0 .2.1.2.2.5.5 1 1.1 1.6 1.6-.3-.3-.7-.6-1-1-.3-.2-.4-.4-.4-.3l.4.4.3.3s-.2 0-.3-.2l-.3-.3c0-.1-.2-.3-.4-.4-.4-.4-.9-.8-1.2-1.2l-.3-.3s-.3-.3 0 0l.9.9c-.3-.2-.9-.8-1.5-1.4-.2-.2-.4-.5-.7-.7l-.3-.3s.3.2.5.5c0 0 0 .1.1.2l.5.5-.2-.2c-.2-.2-.1-.2-.5-.5-.3-.2-.5-.4-.7-.7-.4-.4-1-1-1.1-1.3.5.5 1 .9 1.2 1.3M26 61.1c-.2-.1-.4-.4-.6-.6-.3-.3-.4-.5-.5-.5 0 0 .3.2.4.4.2.1.5.6.5.5 0 0-.2-.3-.5-.6l-.9-.9c0-.1 0 0 0 0l1.7 1.7c.7.7.9 1 .7.8-.1 0 0 0 0 0zm-5.9-6.4c.2.2.6.6.8.9.1.2.2.3-.1 0l-1.4-1.4c-.2-.2-.4-.4-.3-.4 0 0 .2.2 0-.1-.3-.3-.2-.2-.3-.2l-.1-.2c-.8-.8-.4-.5.4.1 0 0 .7.8 1.1 1.3Zm-.4-.1c.3.3.3.4.2.2-.2-.1-.4-.3-.4-.3s-.4-.3-.6-.5c-.4-.4-1-1.1-1-1.1s.3.2.6.5c.3.4.8.8 1.2 1.2M5.2 40.1S5 39.9 5 40c0 0 .1.2.2.3l-2.5-2.5c.2.2.4.4.7.6.1.1.3.3.3.2 0-.2.3.2.6.5L6 40.8c-.1 0-.4-.3-.8-.7m22.8 23c-.5-.5-.6-.6-.6-.7 0 0 .2.1.7.6.4.4.6.6.6.5.1.1.2.3.3.3l-.2-.1c-.3-.3 0 0 0 .2l-.9-.9ZM2.4 27c-.5.5-1.1 1.2-1.2 1.4v-.2c.2-.2.3-.5.5-.7l.6-.6c.2-.2 0 0 0 0-.4.5-.2.2.1 0 .2-.2.4-.4.7-.6l-.8.8Zm23.4 33.5-.9-.9q-.3-.3 0 0c.5.4.2.1.1 0 0 0-.3-.3 0 0l.4.4c.1.2.5.5.8.8-.4-.4-.6-.5-.3-.2Zm-14-42.7c.1-.1.4-.4.5-.4 0 0-.2.2-.3.4-.5.6-1.1 1.1-1.4 1.5 0 .1-.2.2-.3.3 0 0-.1 0-.2.1-.3.2-.3.2.4-.5l1.4-1.4Zm2 31.2s0 .1.2.3c.2.3-.3-.2-.4-.3-.1 0-.3-.3-.3-.3l-.4-.5.3.2c.3.3.6.6.6.7ZM7.6 21.6c.5-.5.8-.7.9-.9l.1-.2.2-.2s.3-.2 0 .1-.6.7-1.1 1.1c-.2.2-.5.4-.7.7.2-.2.2-.3.5-.6Zm19.6 40.2c-.1-.1-.1-.2-.2-.2l.2.1c.3.3.6.5.8.8l.5.5.4.4s0 .1-.1 0c-.3-.3-.6-.5-.8-.8-.3-.3-.5-.6-.8-.8M.4 31.5c0 .8 0 1.4.1 2.3-.3-1.6-.2-1.7-.1-2.3m2.8-5.1c-.1.2.4-.4.1 0s-.4.3-.6.6c0 0-.1 0 0-.1l.2-.2c.5-.5 1-1 1.6-1.5-.4.5-.9.9-1.4 1.4ZM24.3 4.9l.5-.5s.2-.2 0 0zc-.2.2-.4.4-.8.7.3-.3.4-.5.6-.7ZM5.5 40.7l-.3-.3s-.1-.2.2 0l.6.6.1.1c-.2-.2-.6-.6-.6-.5ZM28.8.4h1.1-1l-.1.1c-.1.1-.2.2-.1 0-.1 0-.1 0 .1-.2ZM11.7 17.8s.1-.1.2-.3l.9-.9.2-.2s.1 0 0 0c-.3.3-.6.7-.9 1zM1.9 36.9s.2.1.3.3.2.3.1.2c0 0-.2-.1-.3-.2-.1 0-.3-.3-.5-.7zm13.5-23.2.5-.5-.2.2c-.3.2-.5.5-.8.8.2-.2.3-.4.5-.6Zm8.8 45.5.2.2c-.2-.1-.3-.3-.2-.2L24 59l-1.1-1.1zm2.7-56.6s-.2.1-.1.1c0 0 .1-.2.3-.3.5-.5.7-.6.4-.3-.1 0-.2.1-.5.4Zm24.8 60.9h.5-1.4 1ZM31.3.5h.8-1.6zm-8.5 6 .8-.8-1 1-.2.2.5-.5Zm-12 12.6c.3-.2.5-.4.7-.6 0 0-.1.2-.3.3-.2.2-.5.4-.6.5 0 0 0-.1.1-.2Zm46.1 45.1h-.4c-.2 0 0 0 0 0zh.7-.7m-19.6-.4h1.4zm-33.5-25s-.1 0-.4-.3c-.2-.2-.4-.4-.4-.5 0 0 .3.2.5.5.1.1.4.3.3.3m51.8 25h-.2 1.2zM11.1 45.6c-.2-.2-.3-.3-.3-.4 0 0 .1.1.3.2.2.2.3.3.3.4 0 0-.1-.1-.3-.2M24.5 4.9c.2-.2.4-.3.4-.3l-.3.3c-.2.2-.3.2-.2.2zm8.2 58.7h.9zM15 14.5s-.2.2-.3.4-.2.2-.2.2.1-.2.3-.4zm22.5 49.1h-.8.9ZM28.5 1l.1-.1.3-.3-.2.2c-.2.2-.2.2-.3.2Zm-2.4 2.3-.2.2s.2-.2.4-.5c.1 0 0 .1-.2.3M55 64h.2-.7.4ZM13.7 15.8l-.2.2c0 .1-.2.2-.2.2l.1-.2.2-.2Zm14.2 46.9c-.2-.2-.5-.4-.9-.8zM20.3 9.2s-.1.2-.2.2c-.2.1-.1 0 0-.2 0 0 .3-.2.1 0Zm.3-.5-.2.2c-.2.2-.3.3-.4.3l.2-.2c.1-.1.3-.3.4-.3M5 24.1l.2-.2s-.3.3-.4.5zm42.2 39.4H47h.6zM.5 30.7c0-.3.1-.7.3-1.1 0 .2-.1.4-.2.5 0 .2 0 .4-.1.5ZM21 55.9h.1l.5.5-.6-.6Zm-.2.1-.7-.7zm16.7 8.1h-1zM16.6 51.8l.5.5c-.2-.2-.4-.3-.5-.5m4.5 4.6v.1s-.3-.2-.5-.5c.1 0 .2.1.4.4ZM10.9 19.1l-.1.1-.2.2.2-.2c.1-.1.2-.1.2-.1ZM29.2.8h-.1s0-.1.1-.2h.1Zm-.8 0 .2-.2.2-.2s0-.1.1-.1h.5-.5l-.1.1zm-7.3 7.4.1-.1c.1-.1.2-.2.3-.2l-.1.1c-.1.1-.2.2-.3.2m6.6-6.7c0 .1-.2.3-.4.5l.4-.4Zm.7.1.1-.1-.2.2s-.1.1-.1 0l.2-.2ZM5.7 40.2c.4.4.6.5.8.7-.2-.2-.4-.4-.8-.7m35.5 23.7h-.7zm-34.8-41s.2-.2.2-.1l-.2.2-.1.1zm3-2.6c-.1.1-.1.1-.1 0l.1-.1h.1zm1.4 25.5-.1-.1-.2-.2s.1 0 .2.2l.2.2ZM22.4 7.1s.2-.2.2-.1l-.2.2s-.2.2-.2.1zm1.2 51.7-.1-.1-.1-.2.3.3Zm16 4.9h-.4.4m-38-35.8.1-.2v.1c0 .1-.1.1-.2.2l.1-.2Zm-1 1.3v.2-.3.2Zm13-12.6.2-.2.2-.2-.2.2-.1.1Zm9.5-10.4.2-.2-.1.1-.2.2v-.1ZM27.7 63l.1.1s0 .1.1.1zM9.3 20.2l.1-.1.1-.1zm21 43.5H30h.3m5.2.4h.3zh-.1ZM17.3 51.9l-.1-.1-.1-.1zM35.1.6h.1-.2.2Zm4.6 63.3h-.1zh.2zm-16.9-5.8.1.1v.1h-.1l-.1-.1Zm17.6 5.7h-.1.5zM.6 34.8v-.1.4-.2ZM2 37l.1.1z" class="st0"/><path d="M49.3 11.5c.4-.4.7-.7.9-1 0-.2 0 0-.5.4-.4.3-.8.8-1.1 1.2-.2.3-.5.5-.7.7-.1.1-.1 0 0 0 .5-.5.6-.7 1.1-1.1.1-.2.3-.4.3-.4s-.2.1-.3.3c-.2.2-.5.5-.6.7-.3.3-.5.6-.7.7l-.3.3c0 .1-.5.6-.7.8l-.7.7c-.2.1.2-.2.4-.4l.2-.2-.2.1-1.1 1.1c-1.1 1.1-2.2 2.2-3.2 3.3l-.3.3-.7.7c-.1.1-.3.4-.7.8-.1.1-.4.4-.3.4.2-.2 0 .1-.2.2-.1.2-.2.2 0 0 .1-.1.4-.3.5-.5.3-.3.3-.4.8-.9-.3.2 0 0 .3-.3.6-.6 1.1-1.2 1.8-1.8.2-.2.2-.2.1-.2l.2-.3c.2-.2.2-.2.2-.1s-.2.3-.7.8l-.3.3c.2-.2.5-.5.6-.5s-.3.3-.5.5c0 .1-.1.2 0 .1l.3-.3.8-.8c.1-.1 0 0 .4-.3.3-.3.5-.4.4-.4-.1.2-.4.5-.6.6-.3.2-.4.4-.6.6-.5.6-.8.8-1.4 1.4 0 .1-.7.8 0 .1.1-.1 0 0 0 0-.1.2-.2.2-.3.3-.3.2-.6.6-.8.8-.3.4-.7.7-1.1 1.1l-.6.6c-.2.2-.3.3-.2.3 0 0 1.1-1.1 1.4-1.3l.7-.7c.2-.1.7-.7 1.1-1l-.9.9c-.4.4-.5.5-.3.4 0 0 .3-.2.1 0l-.5.5-1.1 1.1c-.2.2-.5.4-.4.4l.4-.4 1.2-1.2.4-.4s-.2.2-.4.3L39.7 22c-1 1-1.7 1.7-2.6 2.5-.1 0-.6.6-1 1l-.5.5q.3-.3 0 0l-.3.3c-.2.1.2-.2.4-.4 0 0-.2.2-.2.1 0 0-.2.1-.3.3l-.5.5-1 1-1.6 1.6c-.5.6-1 1.1-1.6 1.7h-.1c-.2.3-.3.7-.3 1v-.4.5c0 .5.5.7.3.6 0-.1 0 0 .4.3.2.1.3.3.5.4l.5.5c.2.2-.2-.1-.3-.2-.2-.2-.4-.4-.6-.5 0 0-.3-.3-.2 0 .3.3.4.5.7.7.5.5.8.8 1.1 1.2.2.3.3.4 0 .2s-.2-.1.1.2c.1.2.3.4.3.4s-.3-.2-.4-.4l-.4-.4.4.4c.5.5.9 1 .8.7 0-.1.8.7.7.4l1.6 1.6c.4.5.2.3.2.3.2.2 0 0-.5-.4l-.7-.7-.2-.2c.2.3-.1 0 0 .1l.5.5.9.9c.3.2.8.7.7.6-.2-.2.2.1.5.4.5.4.9.9 1.4 1.3-.2-.2-.4-.5-.7-.8-.1-.1-.1-.2-.3-.4.5.5 1 .9 1.4 1.4l.4.4c.3.2-.3-.3-.4-.5-.2-.2.5.4 0-.1l-.4-.4-1.5-1.5-.1-.1-.2-.2c-.2-.2-.2-.3 0-.2.3.3.7.6 1.3 1.2l.3.3s-.2-.2 0 0l.4.4.6.6c.5.4 1.1 1 1.6 1.5l1.3 1.3.3.3.2.2.5.5h.2l-.2-.2-1.7-1.7c-.6-.5-.8-.8-.5-.6s0-.2-.4-.5c-1-1-2-2.1-3-3l-.5-.5-1-1c-.1-.2-.5-.5-.4-.4 0 0 .2.2.5.4.3.3.4.4.2.1-.3-.4-.6-.7-1.1-1.2-1.2-1.2-2.5-2.4-3.6-3.7 0-.1-.3-.3-.3-.3s-.1 0-.2-.2v-.1s-.1-.2-.1-.3c0-.2 0-.5.2-.6v-.6c.1 0 .2-.1.2-.2l.2-.3.2-.2s.1-.1 0 0c-.2.2-.1.1 0 0l.4-.4.6-.6c.2-.1.5-.5.9-.9l.6-.6.6-.6 1.1-1.1c.4-.4.7-.6.9-.9.2-.2.4-.4.7-.6l.1-.1.3-.3c.3-.3.7-.6 1-1 .2-.2.5-.5.8-.7l-.3.3-.3.3.6-.6.6-.6c.4-.3.5-.5.1-.2-.3.3-.2.1 0 0l.8-.8c.3-.3.6-.5.7-.7.4-.4.8-.9 1.6-1.7l.5-.5c.1-.1.1 0 0 0-.2.3 0 0 .4-.3.3-.2.8-.8.6-.5 0 0 .1 0 .4-.3.3-.2.4-.4.4-.5l.2-.2c.1 0 .2-.2.2-.2s.1 0 .4-.4l.6-.6c0-.1-.2.2-.4.4-.1 0-.2.2-.4.4.3-.3.3-.3.2-.3l.2-.2c.2-.2.2-.1.2-.2 0 0 .7-.6.9-.8.1-.1.2-.2 0 0-.6.6-.5.4-.8.7.4-.3.6-.6.8-.8l.3-.3s.4-.4.8-.9l.3-.3c0-.1.3-.4.4-.5.4-.3 1.1-1 1.6-1.6.2-.2.4-.4.5-.4l-.3.4-.4.4-.6.6c-.2.2-.1.2 0 0l-.2.2-.3.3.5-.5L52 9.8s.2 0 .4-.3c.5-.5.9-.8 1.3-1.3l.5-.5 1.3-1.3.3-.3c-.1 0 0-.1-.8.6l-.5.5-.6.6c-.2.1-.5.5-.9.8-.3.3-.6.6-1 1.1.3-.4.6-.6.9-1 .2-.2.5-.5.4-.5 0 0-.3.3-.5.4l-.6.6c-.2.2-.4.5-.6.6l.6-.6 1.4-1.4.6-.6c.2-.2.5-.6.7-.7l1.3-1.3s-.1.2-.4.4c-.2.2-.1.1-.1.2h.1c.1-.2.1-.2 0-.2-.1.2.2-.1.2 0l.4-.4c.2-.2.3-.3 0-.2-.4.4-.2.1.2-.3l1-1 1.2-1.2s.1-.1.2-.3l.1-.1s-.6.7-.8.9c-.4.4-.7.7-.5.6v.1c-.1.1 0 .1.1 0l.7-.7c.1-.2 0 0-.1 0-.1.1-.3.3-.3.2.3-.3.6-.5.8-.8l.3-.3.2-.3c0-.2.1-.4.1-.7 0-.5-.4-1-.5-1.2-.2-.1-.2-.2-.1 0 .2.1.3.4.4.6.1.3.1.5 0 .7v.2c0-.3 0-.6-.3-1-.3-.3-.1-.2-.1-.2l-.1-.1c-.1 0-.3-.2-.7-.3h-3.9 1-.7q-.75 0 0 0h3.5c.5 0 .9.2 1.2.5 0 0 .1.2.2.3-.2-.3-.3-.3-.3-.3s.3.3.3.8v.3-.3c0-.2 0-.4-.2-.6 0-.2-.2-.3-.3-.3l.1.2.3.6v.5-.2s0 .2-.2.4c0 .2-.3.3-.5.5l-.5.5c-.4.3-.7.7-1 .9-.1 0-.3.3-.4.4-.1.2-.6.7-.9 1l-1 1c0-.1.1-.1.2-.2.3-.3.4-.4.3-.4l-.5.5c-.2.3-.5.5-.7.7-.3.2-.5.5-.7.7-.1.2 0 .1 0 0 .1 0 .4-.4.6-.6.5-.5.5-.4.4-.3 0 0 0 .1-.3.3-.3.3-.3.3-.3.4l-.6.7-.5.5.5-.5s-.3.1-.7.5c-.2.1-.3.2-.5.5L51 9.9l-.9.9ZM30 32.8s0 .1 0 0c-.1 0-.2-.3-.2-.4V32c0-.2.1-.4.2-.4 0 .1-.2.3-.2.4v.4s0 .2.2.3Zm8.2 8.2c.5.5.9.8 1.2 1.2l.6.6-.3-.3h-.1c-.6-.4-1.4-1.3-2.1-2-.3-.3-.6-.6-.6-.5 0-.1 0-.1.4.3l.9.9c-.1-.1-.3-.3 0 0Zm9.1-26.9s0 .1-.3.4-.7.6-1 1l-.1.1.1-.2c.4-.4.8-.8 0-.2-.2.2 0-.1.2-.2.5-.4.8-.8 1.3-1.3.2-.2.3-.4.5-.6l.4-.4c.2-.2 0 0-.1.2-.1.1-.2.2 0 .1.2-.2.2 0-.5.6-.4.3-.4.4-.4.4Zm-3.8 3.8c-.7.7-1.2 1.1-1.8 1.7-.2.2-.4.4-.4.3l.4-.4 1.5-1.5c.5-.4.4-.4.3-.3-.2.2-.2.2.2 0h-.1v.2ZM30.2 31s.6-.6 0 0l-.1.1v.2l-.2.2c-.2.3-.2.3-.2.5v.2-.4c.1-.4.2-.5.3-.6zl.1-.1ZM52.4 9.4l-.5.5c-.1 0 .1-.1.3-.3s.5-.5.6-.7l.4-.4.6-.6.4-.4c-.1.2-.3.3-.5.5-.3.3-.6.6-.9.8l-.5.5ZM30.8 33.6l.3.3c.3.3.5.6.8.9l.4.4c0 .1 0 0-.1 0-.2-.2-1-1-1.4-1.3 0 0 0-.1 0 0 0 0 .3.2 0 0Zm14.4-17.5c-.2.2-.5.5-.6.5 0 0 .2-.2.3-.4l.4-.4c.1 0 .4-.3.8-.8l-1 1Zm1.2-1.4s-.2.2-.2.3c-.2.2-.1 0-.4.3.1-.1.3-.3.3-.4.6-.5.7-.8 1.1-1.2 0 0-.7.8-.9 1ZM34.1 37.3q-.3-.3 0 0c.4.4.5.4.3.2 0 0-.1-.2 0 0l.3.3.1.2q-.2-.1.4.6l-1.1-1.1Zm-1.1-.9-.3-.2c-.3-.3 0 0 0 0 .2.1.2 0 .7.6l.4.4-.5-.5zM54.3 6.8s.1-.2.3-.3l.7-.7-.4.4zm1.6-1.3c.5-.5.7-.7 1-.9-.4.4-.7.7-1 .9M49.2 12c0-.1.2-.2.4-.4l.2-.2s-.1.1-.2.3l-.7.7c.1-.2.2-.3.3-.4M31.5 29.8l-.3.3.5-.5.3-.3zm3.7 8.4s.2 0 .4.3c.2.2.2.2.1.2 0 0-.1 0-.3-.2s-.3-.3-.2-.3m-2.5-2.6c.4.3.3.2.7.6q-.3-.1-.7-.6m-.3-6.7c-.1 0-.2.2-.3.3zl.3-.3-.4.4ZM46 15.5s0 .1-.1.2c-.3.3-.4.4-.6.5zm1.7-2.4.1-.1s0 .2-.4.5c.2-.2 0 0 .3-.4m.7-.4-.3.3.1-.2.5-.5s-.2.2-.3.4M32.3 35.3c-.2-.1-.3-.3-.5-.5s0-.1 0 0c0 0 .3.3.4.5Zm12.3-18.5c-.2.3-.4.5-.7.6.2-.2.5-.5.7-.6m5.6-5.9c0 .1-.3.4-.7.7.2-.3.4-.4.6-.7ZM34.8 37.6l-.2-.2s.2.2.4.3c0 .1 0 0-.2-.2Zm1 1.4s-.1 0-.2-.2l-.2-.2s.2.1.3.2l.2.2Zm-3.4-10.2.8-.8zm2.5 9c-.2-.1-.3-.3-.6-.6l.5.5ZM33.4 28l.4-.4c-.2.2-.3.3-.5.4Zm-2.9 5.1c-.1-.1-.3-.2-.4-.3l-.2-.4c0 .1.1.3.2.3v.2l.2.2Zm4.1-6.5-.1.1-.2.2c.3-.3.4-.4.4-.3Zm2-1.8.1-.1c.1 0 .2-.2.2-.2l-.1.1c-.1 0-.2.2-.2.2m-1.2 1 .6-.6zm2.7-2.5c-.1.1-.3.2-.5.4l.5-.5ZM58.5 2.7c-.1.2-.3.3-.4.4zM33.2 28.1l-.6.6zm3.9 11.8s.1 0 .2.2v.1l-.2-.1-.1-.1Zm13.2-28.8s-.1.1-.1 0c0 0 0-.1.2-.2l-.2.2ZM57.7.3h.1-.5.3ZM34.5 37l-.2-.2-.1-.1.1.1zm-1.1-.6s0 .1 0 0l-.1-.1zm2.9 3.4.1.1s.1.1 0 .1c0 0-.1 0-.2-.2Zm-4.5-5-.1-.1zm2.6 3.3v.1l-.1-.1zM31 30.3h-.1l.1-.1.1-.1-.2.2Zm3.2-3.2h-.1l.1-.1ZM49.7 53.2c.2.1-.3-.4-.4-.5-.2-.2-.4-.5-.7-.7-.2-.1-.5-.5-.7-.7-.3-.3-.2-.3-.1-.2.2.2 0-.2-.3-.4-.5-.4-.6-.6-.9-1-.1-.1-.2-.2 0-.1.4.3 0-.2 0-.2.2.2.4.4.6.7.5.5.8.9 1.4 1.5.3.3 0 0-.2-.1-.4-.4-.3-.2.2.3l1 1c.5.6 1.1 1.1 1.7 1.7l.6.6c0 .1 0 0-.2-.1-.3-.3-.4-.3-.1 0 .1.2 0 0-.2-.1l-.8-.8-.6-.6c-.1-.1.1.2.2.3.2.3.8.8 1.1 1.1.2.3.5.5-.1 0l-.4-.3c-.2-.2-.3-.2 0 0 .4.4.9.9 1.2 1.3l.4.4c.5.5 1.1 1 1.4 1.5l.3.3s.2.1.1 0c-.2-.2.2 0-.3-.4-.2-.2 0 0 0 0 .5.4.7.7 1.1 1.1.3.3 0 .1 0 0-.2-.1 0 0 .2.3s.4.4.6.5l.5.5c.2.2.3.3.3.2-.1-.3-.3-.4-1.3-1.5-.3-.3-.3-.3-.1-.2l.5.5.6.6c.2.2.1 0 0 0-.3-.3-.2-.2.2.1l.3.3s-.2-.3-.4-.4c-.2-.2-.4-.4-.5-.6l-.2-.2c.4.3.2.1 0 0-.2-.3-.5-.6-.8-.9l-1-1c-.1-.2-.4-.4-.6-.6-.3-.2-.5-.5-.7-.7-.5-.5-.6-.7-.9-1 .2.2.4.3.5.4l.6.6c-.3-.2-.5-.5-.8-.8l.3.3-.2-.2-1.1-1.1c-.4-.4-1.3-1.3-1.4-1.5.1 0 0 0-.1-.2-.3-.3-.6-.5-.8-.8l-.4-.4.4.4c.2.2 1 1 .5.4l.1.1-.8-.8c-.4-.3-.6-.6-1-1-.2-.3-.5-.6-.9-1l-1.2-1.2c-.1-.1-.9-1-1.1-1.1s-.5-.4-.8-.7q-.6-.45-.3-.3c.2.2.4.5 1 1.1l.6.6c0 .1-.2-.2-.4-.3l-.3-.3c-.4-.4-.5-.4-.3-.2s.4.3.5.5l1.1 1.1.3.3c0 .1.1.3 0 .2 0 0-.5-.5-.8-.7l-.4-.4c-.2-.2-.4-.4-.2-.1.2.2-.1 0 0 .1 0 0-.1 0-.3-.2-.1-.1-.3-.2-.3-.3-.1-.2-.5-.6-.4-.5 0 0-.1-.2-.3-.3-.3-.3-.3-.3-.4-.3l.1.2c.4.4.6.6.5.7l-.9-.9-.4-.4s.2.3 0 0c-.3-.2-.5-.5-.7-.8-.3-.3-.6-.7-1-1l.3.4-.3-.3c-.2-.2-.4-.4-.6-.5v.1l.6.6c.3.2.5.5.8.8l.6.6c.6.6 1.3 1.1 2 2-.1 0-.4-.3-.1 0 .1.1.3.4.4.5.2.2.5.5.7.6.1 0 .1 0 0-.2-.2-.3 0-.1.4.3l1.2 1.2.6.6h-.1c-.5-.4-.8-.7-1.3-1.3l-.4-.4c.2.3.4.5.8.9l.6.6 1.4 1.4s.2.2.3.4c.4.4 1.2 1.2 1.6 1.5Zm3 3c-.3-.3-.4-.5-.5-.6 0-.1.2.1.4.3.1 0 .2.2.3.3.2.3.4.4.7.6-.1 0-.3-.1-.8-.7Zm1.1 1.2.2.2c-.2-.1-.4-.4-.7-.7.1 0 .3.2.5.5m1.6 2-.2-.2s-.1-.1 0-.1h.1l.2.2Zm-2.8-3.1-.1-.1-.1-.1.2.1z" class="st0"/><path d="M51.9 1h1.2c.6 0 .5 0-.3-.1h-.3 1.3c-.2 0 0 0 0 0h1.5H50c-.2 0 0 0 0 0h.2-3.9.9-.8c.4 0 .2 0 0 0h5.8-.7.4ZM47.7.9h1-.9Zm2.8 0h.3-.3M42 .3h-3.1 2.8c.2 0 .4.1-.2.2-.1 0-.3 0 0 0h3.8-2.1c-.2 0-.4 0 0 0h4.6-7.6 2.1-.3Zm2.8.2h.2-.7.4Zm-3 0h.8zM52.6 55.6c.3.3.7.7.7.8s.4.5.6.7c.6.6.8.8.8.9 0 0 .2.3.5.6l.4.4c.2.2-.1-.2-.2-.2 0 0 0-.1 0 0 .1 0 .2.2.4.4s.4.4.4.5l.1.2c.2.2.2.2.3.2 0 0 .2.1.4.3.4.4.8.7 1.2 1.2 0-.1-.3-.4-.7-.7-.4-.4-.7-.7-.8-.9-.2-.2-.5-.5-.8-.9l-1.2-1.2.2.2.3.3s-.2-.2-.3-.4c-.2-.2-.4-.5-.7-.7l-.5-.5c-.1 0 .3.3.2.3l-1.2-1.2c.1 0 .6.6.7.6-.3-.3-1.1-1.1-.7-.8l-.4-.4s-.2-.2-.3-.2c0 0-.2-.1 0 .1s.1.2 0 0c-.4-.4-.2-.1 0 .1.3.3.6.7.3.4Zm3.5 3.5c-.5-.5-.7-.6-1.3-1.2.3.2.6.5 1.3 1.2M45.8.3h3.4-1.9.5c-.4 0-.3 0 0 0 .7 0 .4 0 .6-.1h-3.6.2c.2 0 0 0 0 0h-1.4.2q.45 0 0 0-.6 0 0 0h2.1Zm1.6-.3h.3-.6zM29 31.7c-.1.4 0 .7 0 .7 0 .2 0 .5.2.7 0 0 0 .1.1.2l.1.1c.1.1.2.1.2.2.3.3.3.2 0-.2 0 0-.1-.2-.2-.2l-.1-.2c0-.1 0-.3-.1-.4v-.2s0 .2.2.5v.1s0 .1.1.1l.1.1-.2-.2c0-.2-.1-.3-.2-.4v-.1.2s.2.4.4.5c.2.3.5.5.9 1 .2.2.4.5.6.5.1 0 0 0-.3-.4-.4-.5-1-.9-1.3-1.4 0 0-.1-.2-.2-.3-.2-.4-.1-1 .3-1.4v.2L31 30l.2-.2-1.6 1.6v-.3.2c-.2.3-.2.4-.3.5 0 .1 0 .2 0 0v-.2s-.1.3-.1.7c0 .3.2.6.1.5 0 0-.2-.4-.2-.7 0-.4.2-.9.5-1.2v.6l.8-.9-.9.9v-.7c-.2.2-.3.5-.4.7Zm.8-.4.4-.4zM51 .3h-1.9 4.7-.2c-.3 0-.9.1-1.1.2h-3.7H51h-1 1.1ZM1 34.4c0-.2-.1-.4-.1-.5 0-.3-.1-.7-.2-1.2v-1.8c0-.4.2-.8.2-1 0 0 0-.2.1-.4 0-.2.2-.4.3-.6 0-.1 0-.2 0 0s-.1.4-.2.5c0 0-.2.5 0 .3 0-.2.2-.4.3-.7.1-.2.2-.4.3-.5v.1c0 .2-.2.4-.3.6-.4.7-.6 1.5-.6 2.3v1.3c0 .4.2.9.4 1.4s.4 1 .6 1.3 0 0-.2-.2c-.2-.3-.4-.8-.5-1.1ZM35.2 39.1l.5.5c.5.5.5.6.3.4 0 0-.2-.1 0 0 .4.5.7.7 1.1 1.2.6.7.9.9 1 .9 0 0-.1-.2 0 0 .2.1.2.2 0 0l-.8-.8-.7-.7c-.7-.7-1.2-1.2-1.4-1.3Zm2.3 2.3.2.2.1.1-.2-.2c-.1-.1-.1-.2-.1-.1M43.9 1.1h-3.3c-.5 0 .5 0 1-.1h3.8-1.5ZM40.4 44.3l.3.3.5.5c.1.2.3.4.7.8.1.1.2.3.3.4 0 0 .1.2 0 0l-.2-.2c-.6-.7-1.3-1.3-2-2l-.4-.4c-.2-.2-.5-.5-.8-.7-.3-.3-.1-.2 0-.1 0 0 .2.1.1 0-.4-.4 0 0 .2 0 0 0 .1 0 .3.3.2.2.3.3.3.4h-.1s-.3-.2 0 0c.1.2.3.4.5.5.2.2.2.1.1 0ZM47.5 51.3s-.3-.2-1-.9l-.5-.5s-.3-.3-.5-.4c-.2-.2-.3-.3-.1-.2.3.2.6.4 1.2 1l.3.3c.3.3.6.5.6.6l.3.3c.1.1.4.4.2.3 0 0-.3-.2-.4-.4 0 0 0-.1-.2-.2ZM19.8 10.1c.3-.3.5-.5.5-.6 0 0 .3-.4.5-.6l1.8-1.8c.3-.3.3-.3.3-.2 0 0-.2.3-.6.6-.7.7-1.3 1.3-1.9 2zM58.1 1.1l.1.1c.2.3.3.7.2 1 0 .2-.4.5-.6.7l-.7.7-.3.3.2-.2.5-.5c.5-.5.8-.8.6-.7l.1-.1.1-.1c.2-.2.2-.5 0-.8 0-.2-.2-.3-.2-.3ZM54.5 57l-.4-.4-.9-.9c-.3-.3-.3-.3-.1-.2 0 0 0-.1.6.5l.5.5c.4.4.9.9.8.9l-.4-.4Z" class="st0"/><path d="m58.2.9.2.3s.1.2 0 .2c0 0 0-.1-.1-.2-.1-.2-.3-.3-.5-.4h-1.2.2c.4 0 1 0 1.4.2.4.3 0 0 0 .1ZM53.5.1h1.9-1.9M43 45.8s.2.2 0 0-.3-.4-.5-.5l-.2-.2-.2-.2s-.2-.2-.1-.2l.2.2c.4.4.8.9.8.9M35.2 39.1l.6.6s-.1 0-.2-.1c-.1 0-.3-.3-.5-.5s-.3-.4-.6-.7c-.1-.1-.3-.3-.3-.4 0 0 .2.1.3.3.2.2.5.4.7.7ZM39.1.8h1.4-1.4M8.4 43.6s.1.2-.3-.2c-.5-.4-.8-.8-1.2-1.2l.2.2c.4.4.8.8 1.3 1.2M41.9 19l-.4.4s.4-.5.7-.8l.4-.4s-.3.4-.7.8M.5 35.1c.1.3.4.8.3.8 0 0-.3-.5-.4-.9s-.3-1.1-.3-1c0 0 0 .2.1.4 0 .2.2.5.2.7ZM38.8 41.5c.1 0 .4.3.6.6l1.1 1.1.2.2-.3-.3-1.7-1.7ZM42 19.7c.3-.3 0-.2.8-.8.2-.2.4-.4.3-.2L42 19.8ZM37 39.5c.3.3.6.6.6.7l-.4-.4c-.3-.3-.8-.8-.8-.9zM17.6 12.4c-.4.4-.6.5-1 .9l.2-.2c.3-.3.9-.9 1-.9zM39.6 21.2l-.3.3c-.3.3-.6.6-.7.6l.4-.4.5-.5ZM32.9 28.2l1-1 .5-.5c-.1.2-.3.3-.5.5l-.9.9ZM38.1.2h1.4c.4 0 0 0 0 0h-1.3ZM43.2 64.2h1-1.4zM57.8 63.5c.2 0 .4-.3.4-.3l-.2.3c-.2.2-.5.2-.6.2 0 0 .4 0 .4-.2M2.2 26.9l-.5.5s.2-.3.4-.5c.3-.3.3-.3.4-.3 0 0-.1.2-.3.4ZM22.7 6.4l-.5.5s.1-.2.3-.3c.3-.2.6-.6.7-.6 0 0-.3.3-.4.5ZM39.1 42.4l.6.6c.2.2.2.3.2.3s-.2-.1-.4-.4c-.3-.3-.3-.3-.4-.5M38 .7h-.5 1zM57 60.6c.3.3.3.3.3.4l-.3-.2c-.3-.3-.3-.3-.3-.4l.2.2ZM39.9 21l-1 1c.3-.4.6-.6.9-.9ZM37.7 23.1s0 .1-.3.3l-.4.4v-.1l.3-.3.3-.3ZM14.8 14.3l-.3.3s.2-.2.3-.4c.1-.1.3-.4.3-.3l-.4.4ZM41.5 44.5s.2.2.2.3l-.2-.2c-.1-.1-.3-.3-.3-.4-.1-.1 0 0 0 0zM11.8 18.3c.2-.2.4-.4.5-.4 0 0 0 .1-.2.3l-.4.4.2-.2ZM38.4 40.9c.1.2.5.5.4.5l-.4-.4-.4-.4.3.3ZM41.8 64.1h-1.3 1.3M53.8 7.7s0-.1.3-.3c.2-.2.4-.3.4-.3s-.1.2-.3.3l-.3.3ZM41.6 45l-.4-.4s.1 0 .3.2l.4.4-.3-.3ZM55.6.5h.8-.8M20.8 8.3c.4-.4.5-.6.6-.7.2-.2.2-.2.1 0s-.3.4-.7.7M23.2 6.7l.4-.4.2-.2s-.1.2-.3.3c-.2.2-.2.2-.3.2ZM7.6 21.3c.2-.2.3-.3.4-.3l-.2.3c-.2.2-.3.2-.3.2zM38.7 0h.9-.9M48 13.9l-.3.3.2-.3.3-.3s-.1.1-.2.3M55.1 6.3h.1s-.1 0-.4.4c-.1.1-.2.2-.2.1zM24.9 5.1l-.2.2s.2-.2.3-.4l.2-.2s-.1.2-.3.3ZM19.8 54.2c.3.3.5.4.7.7-.2-.2-.4-.4-.6-.7ZM44.7 47.8l.2.1.3.3-.2-.2c-.1-.1-.2-.2-.2-.3ZM57 60.4l.2.1c.2.2.2.2.2.3l-.2-.2c-.2-.2-.3-.3-.2-.3ZM43.7 17.9l.4-.4-.2.2c-.1.1-.3.3-.4.3l.2-.2ZM57 1h.7-.6ZM37.4 23.8l.3-.3-.2.2-.3.3.1-.2ZM32.1 29l-.2.2zl.2-.2zM40.2 43.4l.2.2zl-.2-.2zM53.8.6h1.1z" class="st0"/><path d="M58.1 1c.1 0 .2.2.2.1 0 0-.1-.1-.3-.2h-.2.3ZM44.9 48.6s.1.1.3.2c.1.1.2.2.1.2l-.3-.3zM41.3 20.3c0 .1-.1.1-.3.4 0 0-.1.1-.1 0 0 0 .2-.2.4-.5ZM54.9 57.6s.2.1.3.3l.1.2-.2-.2-.2-.2ZM38.5 22.6l.2-.2-.3.3-.2.2zM54.1 64.2h-.2.5zM56.5 4.3l-.2.2-.2.2.2-.2zM34.5 0h.5-.5M51.8 8.8l-.3.3-.1.1s.1-.2.3-.3l.2-.2ZM49.7 53.2c.1.1.3.2.4.4l-.5-.5ZM7.3 22.9l-.2.2zl.2-.2zM54 57.1l.3.3c.1.1.2.3.2.2l-.3-.3z" class="st0"/><path d="m38.5 22.7-.1.1-.2.2v-.1l.2-.2ZM35.8 25.2l-.2.2zl.2-.2zM42.6 64.2h-.2.4zM49.2 12.4l-.1.2c-.1.1-.2.2-.2.1l.2-.2zM53.4 8.1l-.1.2-.1.1.2-.2h.1ZM54.1 56.8l.2.2h-.1l-.2-.2zM12.5 16.7s.2-.1.2-.2zl-.1.1.1-.2ZM19.2 53.5l-.1-.1-.1-.1.1.1zM42.8 45.7c-.1-.1-.1-.1 0-.1l.2.1-.2-.1ZM48.1 13.4h.1s0 .1-.2.2zM57.1.5h.2-.3ZM42.4 45.8h.1l.1.1-.1-.1ZM53.9 6.6l.1-.1-.1.2h-.1zM43.2 47.2s.1.1.2.1l-.1-.1ZM2.3 27.6l-.1.1v-.1s0-.1.1-.1zM38.1 41c.1 0 .2.2.3.3z" class="st0"/></svg>